<svg width="713" height="434" viewBox="0 0 713 434" fill="none" xmlns="http://www.w3.org/2000/svg">
<path d="M0 37.9997C0 37.9997 34.5172 21.0169 51.5 37.9997C68.4828 54.9824 61.5 99.4996 61.5 99.4996C61.5 99.4996 52.3589 160.251 69.5 171.5C82 179.703 91.8341 178.511 98 167.5C105 155 98 99.4996 98 99.4996C98 99.4996 94.8168 51.7619 114.5 37.9997C128.262 28.3773 135.304 27.0089 148 37.9997C181.5 67 157 171.5 157 171.5C157 171.5 140 218 148 240C154.539 257.984 174.522 262.728 191 253C218.912 236.522 199.455 174.82 197 142.5C194 103 189.278 98.4266 197 71.9996C202.168 54.3132 221.49 43.6616 233.5 37.9997C268.5 21.4998 250.5 71.9998 293.5 88.4996C321 99.0519 341.5 90 351 94C361.518 98.4288 378.5 99.1334 378.5 157C378.5 253 351 310 363 375.5C375 441 426.858 441.103 449 423C528.5 358 453 116.5 464 78C471.797 50.7117 526.815 70.3851 548 51.5C567.298 34.2967 577.269 24.0101 603 21.4998C664.5 15.5 712.5 0 712.5 0H0V37.9997Z" fill="#E2B590"/>
<path d="M374 364.5C374 364.5 369.191 381.104 382 400.5C399.5 427 435.465 416 435.465 416C435.465 416 402.887 410.11 391 395.5C374.849 375.649 374 364.5 374 364.5Z" fill="white"/>
<path d="M73.9645 167.5C65.6302 162.895 68.4645 148.5 68.4645 148.5C73.0448 160.553 77.6371 164.573 88.9645 167.5C88.9645 167.5 79.6044 170.616 73.9645 167.5Z" fill="white"/>
<path d="M196.964 219.5C191.46 239.983 188.65 238.743 167.464 243.5C167.464 243.5 177.668 248.405 188.964 243.5C201.364 238.116 196.964 219.5 196.964 219.5Z" fill="white"/>
<path d="M294.464 68C283.956 60.0721 276.464 39.5 276.464 39.5C276.464 39.5 289.477 54.862 300 62C311.787 69.9953 333.465 76.5 333.465 76.5C333.465 76.5 306.908 77.3878 294.464 68Z" fill="white"/>
<path d="M530.465 39.5C516.077 44.4961 491.465 39.5 491.465 39.5C491.465 39.5 513.625 36.8934 527 32.5C540.375 28.1066 559.965 17 559.965 17C559.965 17 544.152 34.7471 530.465 39.5Z" fill="white"/>
</svg>
