<svg width="710" height="608" viewBox="0 0 710 608" fill="none" xmlns="http://www.w3.org/2000/svg">
<path d="M184.265 206H61.0379L0 311L61.0379 416H184.265L243 311L184.265 206Z" fill="#F5D1B4"/>
<path d="M184.265 416H61.0379L0 521L61.0379 626H184.265L243 521L184.265 416Z" fill="#E2B590"/>
<path d="M360.507 103H237.787L177 208L237.787 313H360.507L419 208L360.507 103Z" fill="#E2B590"/>
<path d="M544.024 206H420.289L359 311L420.289 416H544.024L603 311L544.024 206Z" fill="#F5D1B4"/>
<path d="M726.265 105H603.038L542 210L572.519 262.5L603.038 315H726.265L785 210L726.265 105Z" fill="#E2B590"/>
<path d="M544.024 0H420.289L359 105L420.289 210H544.024L603 105L544.024 0Z" fill="#CD9A71"/>
<path d="M726.024 313H602.289L541 418L602.289 523H726.024L785 418L726.024 313Z" fill="#CD9A71"/>
<path d="M544.024 415H420.289L359 520L420.289 625H544.024L603 520L544.024 415Z" fill="#E2B590"/>
<path d="M360.507 312H237.787L177 416.5L237.787 521H360.507L419 416.5L360.507 312Z" fill="#CD9A71"/>
<path d="M73 382.5L37 315L74 250.5M216.5 215.5L260.5 153.5H342M404 106.5L449 48H516.5M623.5 153.5H709M227.5 418.5L260.5 355H342M404 315L449 251.5H516.5M73 591.5L37 526L73 451.5M257.5 564H342M623.5 475L585.5 418.5L623.5 355M404 526L449 451.5H516.5M623.5 564H709" stroke="#816249"/>
<path d="M258 563.5L235 607.5" stroke="#816249"/>
<path d="M73 251H160.5" stroke="#000008"/>
</svg>
