<svg width="844" height="534" viewBox="0 0 844 534" fill="none" xmlns="http://www.w3.org/2000/svg">
<g clip-path="url(#clip0_209_1337)" filter="url(#filter0_d_209_1337)">
<path d="M251.487 83.1567L247.643 79.7878L241.395 86.916L245.239 90.2848L251.487 83.1567Z" fill="#B17E15"/>
<path d="M205.747 112.925C200.936 113.441 196.658 112.805 193.033 111.037C189.767 109.444 187.213 106.995 185.646 103.956C183.092 99.0009 183.603 93.3619 186.949 89.5895C188.883 87.4086 191.629 86.0278 194.888 85.5969C197.542 85.2458 200.499 85.517 203.707 86.4029C204.91 82.9907 208.008 80.5205 212.068 80.0156C214.989 79.6525 218.322 80.4178 220.822 82.6095C222.378 83.9733 223.612 85.8903 224.222 88.4306L205.747 112.925Z" fill="#C8E5FA"/>
<path d="M193.646 124.007C191.144 121.814 187.323 122.065 185.13 124.568C182.937 127.07 183.188 130.89 185.69 133.083C188.193 135.277 192.013 135.025 194.206 132.523C196.399 130.021 196.148 126.201 193.646 124.007ZM189.059 129.24C188.676 128.904 188.637 128.319 188.973 127.936C189.309 127.553 189.894 127.515 190.277 127.85C190.66 128.186 190.699 128.771 190.363 129.154C190.027 129.538 189.442 129.576 189.059 129.24Z" fill="#211915"/>
<path d="M205.93 125.486L202.086 122.117C201.315 122.997 197.038 125.915 193.202 125.96L193.262 131.07C198.743 131.006 204.303 127.341 205.93 125.486Z" fill="#211915"/>
<path d="M214.721 142.481C212.219 140.288 208.399 140.539 206.205 143.041C204.012 145.543 204.263 149.363 206.766 151.557C209.268 153.75 213.088 153.499 215.281 150.997C217.475 148.494 217.223 144.674 214.721 142.481ZM210.134 147.714C209.751 147.378 209.713 146.793 210.048 146.41C210.384 146.027 210.969 145.988 211.352 146.324C211.736 146.66 211.774 147.245 211.438 147.628C211.103 148.011 210.517 148.05 210.134 147.714Z" fill="#211915"/>
<path d="M215.49 133.866L211.647 130.497C210.021 132.353 207.116 138.345 207.771 143.788L212.844 143.177C212.386 139.369 214.719 134.746 215.49 133.866Z" fill="#211915"/>
<path d="M228.099 105.962C221.193 99.9088 210.651 100.602 204.599 107.507C198.546 114.412 199.24 124.955 206.145 131.007C213.05 137.06 223.592 136.366 229.644 129.461C235.697 122.556 235.004 112.014 228.099 105.962Z" fill="#211915"/>
<path d="M246.725 112.881C253.485 105.169 252.713 93.4382 245.001 86.6786C237.289 79.919 225.559 80.6909 218.799 88.4021C212.04 96.1138 212.811 107.845 220.523 114.605C228.234 121.364 239.965 120.592 246.725 112.881Z" fill="#FFAB00"/>
<path d="M250.641 105.667L225.438 83.5752C227.38 82.7433 229.441 82.2544 231.526 82.1152L251.291 99.4403C251.426 101.525 251.211 103.632 250.641 105.667Z" fill="#211915"/>
<path d="M244.908 114.687L217.247 90.4401C217.711 89.736 218.227 89.0546 218.799 88.4026C219.37 87.7506 219.978 87.1494 220.615 86.5971L248.276 110.844C247.813 111.548 247.296 112.229 246.725 112.881C246.153 113.533 245.545 114.134 244.908 114.687Z" fill="#211915"/>
<path d="M214.233 101.842C214.098 99.7577 214.313 97.6504 214.883 95.6159L240.086 117.707C238.144 118.539 236.083 119.028 233.998 119.167L214.233 101.842Z" fill="#211915"/>
<path d="M251.487 83.1567L247.643 79.7878L241.395 86.916L245.239 90.2848L251.487 83.1567Z" fill="#B17E15"/>
<path d="M205.747 112.925C200.936 113.441 196.658 112.805 193.033 111.037C189.767 109.444 187.213 106.995 185.646 103.956C183.092 99.0009 183.603 93.3619 186.949 89.5895C188.883 87.4086 191.629 86.0278 194.888 85.5969C197.542 85.2458 200.499 85.517 203.707 86.4029C204.91 82.9907 208.008 80.5205 212.068 80.0156C214.989 79.6525 218.322 80.4178 220.822 82.6095C222.378 83.9733 223.612 85.8903 224.222 88.4306L205.747 112.925Z" fill="#C8E5FA"/>
<path d="M224.123 129.033C224.242 133.87 225.432 138.028 227.66 141.39C229.668 144.419 232.43 146.63 235.648 147.785C240.895 149.669 246.418 148.423 249.72 144.612C251.628 142.409 252.638 139.506 252.638 136.218C252.638 133.541 251.982 130.645 250.684 127.58C253.909 125.941 255.952 122.547 255.921 118.455C255.898 115.512 254.703 112.308 252.202 110.116C250.646 108.752 248.584 107.78 245.986 107.508L224.123 129.033Z" fill="#94AABB"/>
<path d="M193.646 124.007C191.144 121.814 187.323 122.065 185.13 124.568C182.937 127.07 183.188 130.89 185.69 133.083C188.193 135.277 192.013 135.025 194.206 132.523C196.399 130.021 196.148 126.201 193.646 124.007ZM189.059 129.24C188.676 128.904 188.637 128.319 188.973 127.936C189.309 127.553 189.894 127.515 190.277 127.85C190.66 128.186 190.699 128.771 190.363 129.154C190.027 129.538 189.442 129.576 189.059 129.24Z" fill="#211915"/>
<path d="M205.93 125.486L202.086 122.117C201.315 122.997 197.038 125.915 193.202 125.96L193.262 131.07C198.743 131.006 204.303 127.341 205.93 125.486Z" fill="#211915"/>
<path d="M214.721 142.481C212.219 140.288 208.399 140.539 206.205 143.041C204.012 145.543 204.263 149.363 206.766 151.557C209.268 153.75 213.088 153.499 215.281 150.997C217.475 148.494 217.223 144.674 214.721 142.481ZM210.134 147.714C209.751 147.378 209.713 146.793 210.048 146.41C210.384 146.027 210.969 145.988 211.352 146.324C211.736 146.66 211.774 147.245 211.438 147.628C211.103 148.011 210.517 148.05 210.134 147.714Z" fill="#211915"/>
<path d="M215.49 133.866L211.647 130.497C210.021 132.353 207.116 138.345 207.771 143.788L212.844 143.177C212.386 139.369 214.719 134.746 215.49 133.866Z" fill="#211915"/>
<path d="M228.099 105.962C221.193 99.9088 210.651 100.602 204.599 107.507C198.546 114.412 199.24 124.955 206.145 131.007C213.05 137.06 223.592 136.366 229.644 129.461C235.697 122.556 235.004 112.014 228.099 105.962Z" fill="#211915"/>
<path d="M246.725 112.881C253.485 105.169 252.713 93.4382 245.001 86.6786C237.289 79.919 225.559 80.6909 218.799 88.4021C212.04 96.1138 212.811 107.845 220.523 114.605C228.234 121.364 239.965 120.592 246.725 112.881Z" fill="#FFAB00"/>
<path d="M246.725 112.881C253.484 105.169 252.713 93.4383 245.001 86.6787C237.16 95.6237 226.775 107.472 220.522 114.604C228.234 121.364 239.965 120.592 246.725 112.881Z" fill="#BD7F00"/>
<path d="M250.641 105.667L225.438 83.5752C227.38 82.7433 229.441 82.2544 231.526 82.1152L251.291 99.4403C251.426 101.525 251.211 103.632 250.641 105.667Z" fill="#211915"/>
<path d="M244.908 114.687L217.247 90.4401C217.711 89.736 218.227 89.0546 218.799 88.4026C219.37 87.7506 219.978 87.1494 220.615 86.5971L248.276 110.844C247.813 111.548 247.296 112.229 246.725 112.881C246.153 113.533 245.545 114.134 244.908 114.687Z" fill="#211915"/>
<path d="M214.233 101.842C214.098 99.7577 214.313 97.6504 214.883 95.6159L240.086 117.707C238.144 118.539 236.083 119.028 233.998 119.167L214.233 101.842Z" fill="#211915"/>
<path d="M246.808 88.494C246.256 87.857 245.653 87.2498 245.001 86.6784C247.751 83.5413 249.565 81.4716 249.565 81.4716L251.487 83.156L246.808 88.494Z" fill="#835E10"/>
<path d="M250.641 105.666L238.04 94.6201C239.204 93.2922 240.337 91.9992 241.408 90.777L251.29 99.4386C251.425 101.523 251.211 103.631 250.64 105.665" fill="#191310"/>
<path d="M244.908 114.686L231.078 102.562C232.186 101.298 233.318 100.006 234.446 98.7194L248.277 110.843C247.842 111.502 247.362 112.141 246.833 112.756C246.829 112.76 246.825 112.765 246.821 112.77C246.812 112.78 246.803 112.79 246.794 112.801C246.786 112.81 246.778 112.819 246.77 112.828C246.767 112.832 246.763 112.837 246.759 112.841C246.748 112.854 246.736 112.867 246.725 112.88C246.713 112.893 246.702 112.906 246.69 112.919C246.687 112.923 246.683 112.928 246.679 112.932C246.671 112.941 246.663 112.95 246.655 112.959C246.646 112.969 246.637 112.979 246.628 112.99C246.624 112.994 246.62 112.999 246.616 113.004C246.076 113.608 245.505 114.168 244.908 114.686Z" fill="#191310"/>
<path d="M233.997 119.167L224.116 110.505C225.148 109.327 226.284 108.031 227.485 106.662L240.086 117.707C238.192 118.519 236.185 119.004 234.154 119.156L234.155 119.155C234.102 119.159 234.05 119.163 233.997 119.167Z" fill="#191310"/>
</g>
<g clip-path="url(#clip1_209_1337)" filter="url(#filter1_d_209_1337)">
<path d="M807.464 460.321L805.339 463.993L798.529 460.052L800.654 456.38L807.464 460.321Z" fill="#B17E15"/>
<path d="M763.579 449.092C759.659 449.967 756.465 451.605 754.086 453.96C751.942 456.082 750.586 458.687 750.163 461.493C749.474 466.069 751.377 470.366 755.011 472.442C757.113 473.641 759.639 473.996 762.316 473.468C764.496 473.037 766.749 472.037 769.035 470.486C770.889 472.849 773.982 473.967 777.308 473.283C779.702 472.791 782.118 471.302 783.501 468.913C784.361 467.427 784.821 465.591 784.624 463.432L763.579 449.092Z" fill="#C8E5FA"/>
<path d="M751.115 443.6C749.732 445.99 746.662 446.809 744.271 445.426C741.881 444.042 741.062 440.972 742.445 438.582C743.829 436.191 746.899 435.372 749.289 436.755C751.68 438.139 752.499 441.209 751.115 443.6ZM746.116 440.706C745.905 441.072 746.03 441.543 746.396 441.755C746.762 441.966 747.232 441.841 747.444 441.475C747.656 441.109 747.53 440.639 747.164 440.427C746.798 440.215 746.328 440.34 746.116 440.706Z" fill="#211915"/>
<path d="M760.38 439.168L758.255 442.84C757.414 442.353 753.274 441.197 750.247 442.183L748.934 438.15C753.26 436.741 758.607 438.142 760.38 439.168Z" fill="#211915"/>
<path d="M762.768 423.466C761.384 425.856 758.314 426.676 755.924 425.292C753.533 423.909 752.714 420.838 754.097 418.448C755.481 416.058 758.551 415.238 760.942 416.622C763.332 418.005 764.151 421.076 762.768 423.466ZM757.769 420.573C757.557 420.939 757.682 421.409 758.048 421.621C758.414 421.833 758.885 421.707 759.096 421.341C759.308 420.975 759.183 420.505 758.817 420.293C758.451 420.081 757.981 420.207 757.769 420.573Z" fill="#211915"/>
<path d="M765.666 430.035L763.541 433.706C761.768 432.68 757.889 428.743 756.956 424.289L761.107 423.419C761.761 426.535 764.825 429.548 765.666 430.035Z" fill="#211915"/>
<path d="M783.006 448.618C779.188 455.214 770.715 457.475 764.119 453.657C757.522 449.839 755.261 441.366 759.079 434.77C762.897 428.173 771.37 425.913 777.966 429.73C784.563 433.548 786.824 442.021 783.006 448.618Z" fill="#211915"/>
<path d="M795.808 438.219C803.175 442.483 805.691 451.912 801.427 459.279C797.163 466.646 787.735 469.161 780.368 464.898C773.001 460.634 770.485 451.206 774.749 443.839C779.013 436.471 788.441 433.956 795.808 438.219Z" fill="#FFAB00"/>
<path d="M800.808 442.849L786.873 466.926C788.621 467.063 790.372 466.899 792.048 466.453L802.976 447.571C802.527 445.896 801.797 444.297 800.808 442.849Z" fill="#211915"/>
<path d="M793.9 437.284L778.606 463.71C779.158 464.14 779.746 464.538 780.368 464.898C780.991 465.259 781.629 465.57 782.277 465.834L797.571 439.409C797.019 438.979 796.431 438.581 795.809 438.22C795.186 437.86 794.548 437.549 793.9 437.284Z" fill="#211915"/>
<path d="M773.201 455.546C773.65 457.221 774.38 458.821 775.37 460.268L789.304 436.192C787.556 436.054 785.805 436.219 784.129 436.664L773.201 455.546Z" fill="#211915"/>
<path d="M807.464 460.321L805.339 463.993L798.529 460.052L800.654 456.38L807.464 460.321Z" fill="#B17E15"/>
<path d="M763.579 449.092C759.659 449.967 756.465 451.605 754.086 453.96C751.942 456.082 750.586 458.687 750.163 461.493C749.474 466.069 751.377 470.366 755.011 472.442C757.113 473.641 759.639 473.996 762.316 473.468C764.496 473.037 766.749 472.037 769.035 470.486C770.889 472.849 773.982 473.967 777.308 473.283C779.702 472.791 782.118 471.302 783.501 468.913C784.361 467.427 784.821 465.591 784.624 463.432L763.579 449.092Z" fill="#C8E5FA"/>
<path d="M773.739 431.537C772.545 427.702 772.375 424.116 773.232 420.88C774.003 417.964 775.586 415.491 777.809 413.726C781.433 410.849 786.107 410.358 789.717 412.475C791.804 413.7 793.37 415.713 794.246 418.298C794.959 420.403 795.214 422.854 795.008 425.609C797.98 426.039 800.49 428.164 801.555 431.389C802.32 433.71 802.233 436.547 800.851 438.935C799.991 440.422 798.628 441.735 796.658 442.64L773.739 431.537Z" fill="#94AABB"/>
<path d="M751.115 443.6C749.732 445.99 746.662 446.809 744.271 445.426C741.881 444.042 741.062 440.972 742.445 438.582C743.829 436.191 746.899 435.372 749.289 436.755C751.68 438.139 752.499 441.209 751.115 443.6ZM746.116 440.706C745.905 441.072 746.03 441.543 746.396 441.755C746.762 441.966 747.232 441.841 747.444 441.475C747.656 441.109 747.53 440.639 747.164 440.427C746.798 440.215 746.328 440.34 746.116 440.706Z" fill="#211915"/>
<path d="M760.38 439.168L758.255 442.84C757.414 442.353 753.274 441.197 750.247 442.183L748.934 438.15C753.26 436.741 758.607 438.142 760.38 439.168Z" fill="#211915"/>
<path d="M762.768 423.466C761.384 425.856 758.314 426.676 755.924 425.292C753.533 423.909 752.714 420.838 754.097 418.448C755.481 416.058 758.551 415.238 760.942 416.622C763.332 418.005 764.151 421.076 762.768 423.466ZM757.769 420.573C757.557 420.939 757.682 421.409 758.048 421.621C758.414 421.833 758.885 421.707 759.096 421.341C759.308 420.975 759.183 420.505 758.817 420.293C758.451 420.081 757.981 420.207 757.769 420.573Z" fill="#211915"/>
<path d="M765.666 430.035L763.541 433.706C761.768 432.68 757.889 428.743 756.956 424.289L761.107 423.419C761.761 426.535 764.825 429.548 765.666 430.035Z" fill="#211915"/>
<path d="M783.006 448.618C779.188 455.214 770.715 457.475 764.119 453.657C757.522 449.839 755.261 441.366 759.079 434.77C762.897 428.173 771.37 425.913 777.966 429.73C784.563 433.548 786.824 442.021 783.006 448.618Z" fill="#211915"/>
<path d="M795.808 438.219C803.175 442.483 805.691 451.912 801.427 459.279C797.163 466.646 787.735 469.161 780.368 464.898C773.001 460.634 770.485 451.206 774.749 443.839C779.013 436.471 788.441 433.956 795.808 438.219Z" fill="#FFAB00"/>
<path d="M795.808 438.22C803.175 442.483 805.691 451.912 801.427 459.279C792.882 454.333 781.563 447.782 774.749 443.839C779.013 436.472 788.441 433.956 795.808 438.22Z" fill="#BD7F00"/>
<path d="M800.808 442.849L786.873 466.926C788.621 467.063 790.372 466.899 792.048 466.453L802.976 447.571C802.527 445.896 801.797 444.297 800.808 442.849Z" fill="#211915"/>
<path d="M793.9 437.284L778.606 463.71C779.158 464.14 779.746 464.538 780.368 464.898C780.991 465.259 781.629 465.57 782.277 465.834L797.571 439.409C797.019 438.979 796.431 438.581 795.809 438.22C795.186 437.86 794.548 437.549 793.9 437.284Z" fill="#211915"/>
<path d="M773.201 455.546C773.65 457.221 774.38 458.821 775.37 460.268L789.304 436.192C787.556 436.054 785.805 436.219 784.129 436.664L773.201 455.546Z" fill="#211915"/>
<path d="M802.365 457.37C802.1 458.018 801.788 458.656 801.428 459.279C804.425 461.013 806.402 462.157 806.402 462.157L807.464 460.322L802.365 457.37Z" fill="#835E10"/>
<path d="M800.808 442.849L793.84 454.888C795.109 455.622 796.344 456.337 797.512 457.013L802.975 447.573C802.527 445.898 801.797 444.298 800.807 442.85" fill="#191310"/>
<path d="M793.9 437.283L786.253 450.496C787.461 451.195 788.695 451.91 789.924 452.621L797.571 439.408C797.054 439.006 796.506 438.631 795.927 438.288C795.922 438.286 795.918 438.283 795.913 438.281C795.904 438.275 795.894 438.269 795.884 438.263C795.875 438.258 795.867 438.253 795.858 438.248C795.854 438.246 795.85 438.244 795.846 438.241C795.833 438.234 795.821 438.227 795.809 438.22C795.796 438.212 795.784 438.205 795.771 438.198C795.767 438.196 795.763 438.193 795.759 438.191C795.75 438.186 795.742 438.181 795.733 438.176C795.723 438.17 795.713 438.165 795.703 438.159C795.699 438.156 795.694 438.154 795.69 438.151C795.105 437.82 794.507 437.531 793.9 437.283Z" fill="#191310"/>
<path d="M784.129 436.665L778.666 446.105C779.79 446.756 781.028 447.473 782.337 448.23L789.304 436.192C787.599 436.058 785.892 436.211 784.255 436.632L784.256 436.632C784.213 436.643 784.171 436.654 784.129 436.665Z" fill="#191310"/>
</g>
<g clip-path="url(#clip2_209_1337)" filter="url(#filter2_d_209_1337)">
<path d="M67.0067 520.719L61.8377 522.1L59.2764 512.513L64.4454 511.132L67.0067 520.719Z" fill="#B17E15"/>
<path d="M37.8688 471.575C33.5914 468.86 29.2815 467.474 25.0591 467.454C21.2551 467.436 17.7231 468.551 14.8433 470.677C10.149 474.144 8.01517 479.675 9.40752 484.767C10.2123 487.71 12.1495 490.279 15.0091 492.194C17.338 493.754 20.2395 494.87 23.6616 495.525C23.2087 499.285 24.9718 503.04 28.5491 505.396C31.1227 507.091 34.6061 507.917 37.969 507.019C40.0617 506.459 42.1082 505.232 43.8583 503.13L37.8688 471.575Z" fill="#C8E5FA"/>
<path d="M31.6461 455.563C28.2807 456.462 24.8112 454.456 23.9121 451.091C23.0129 447.725 25.0195 444.256 28.385 443.357C31.7504 442.458 35.2197 444.464 36.1188 447.829C37.0179 451.195 35.0117 454.664 31.6461 455.563ZM29.7658 448.525C29.2505 448.663 28.9431 449.194 29.0808 449.71C29.2184 450.225 29.7498 450.532 30.2652 450.395C30.7803 450.257 31.0876 449.726 30.95 449.21C30.8123 448.695 30.2811 448.388 29.7658 448.525Z" fill="#211915"/>
<path d="M43.8615 459.87L38.6927 461.25C38.3765 460.067 35.7139 455.345 32.1344 453.526L34.5585 448.757C39.6746 451.357 43.1948 457.374 43.8615 459.87Z" fill="#211915"/>
<path d="M59.9916 447.99C56.6262 448.889 53.1569 446.883 52.2578 443.517C51.3586 440.152 53.3651 436.683 56.7305 435.783C60.0959 434.884 63.5654 436.891 64.4645 440.256C65.3636 443.622 63.3571 447.091 59.9916 447.99ZM58.1114 440.952C57.5963 441.09 57.2888 441.621 57.4265 442.136C57.5641 442.652 58.0955 442.959 58.6108 442.821C59.126 442.684 59.4335 442.152 59.2958 441.637C59.1582 441.122 58.6267 440.815 58.1114 440.952Z" fill="#211915"/>
<path d="M56.7203 456.434L51.5516 457.815C50.8849 455.319 50.9351 448.348 54.0727 443.543L58.5523 446.467C56.3569 449.83 56.4042 455.25 56.7203 456.434Z" fill="#211915"/>
<path d="M55.6224 488.472C46.3352 490.953 36.7609 485.416 34.2798 476.129C31.7987 466.842 37.3359 457.268 46.6229 454.786C55.9101 452.305 65.4842 457.842 67.9653 467.129C70.4463 476.416 64.9096 485.991 55.6224 488.472Z" fill="#211915"/>
<path d="M76.3136 490.61C79.0845 500.981 72.9228 511.635 62.5509 514.406C52.1791 517.177 41.5252 511.015 38.7543 500.644C35.9834 490.272 42.145 479.618 52.5167 476.847C62.8884 474.076 73.5427 480.238 76.3136 490.61Z" fill="#FFAB00"/>
<path d="M76.6458 499.196L42.749 508.252C44.1866 509.933 45.8944 511.347 47.7866 512.444L74.3697 505.342C75.4629 503.448 76.2382 501.37 76.6458 499.196Z" fill="#211915"/>
<path d="M75.4452 488.073L38.2417 498.012C38.3512 498.888 38.5202 499.767 38.7544 500.644C38.9887 501.521 39.2807 502.367 39.6226 503.181L76.8259 493.241C76.7167 492.366 76.5479 491.487 76.3136 490.61C76.0793 489.733 75.7876 488.887 75.4452 488.073Z" fill="#211915"/>
<path d="M40.6981 485.912C39.6052 487.806 38.8302 489.883 38.4224 492.058L72.319 483.002C70.8815 481.321 69.1734 479.906 67.2813 478.81L40.6981 485.912Z" fill="#211915"/>
<path d="M67.0067 520.719L61.8377 522.1L59.2764 512.513L64.4454 511.132L67.0067 520.719Z" fill="#B17E15"/>
<path d="M37.8688 471.575C33.5914 468.86 29.2815 467.474 25.0591 467.454C21.2551 467.436 17.7231 468.551 14.8433 470.677C10.149 474.144 8.01517 479.675 9.40752 484.767C10.2123 487.71 12.1495 490.279 15.0091 492.194C17.338 493.754 20.2395 494.87 23.6616 495.525C23.2087 499.285 24.9718 503.04 28.5491 505.396C31.1227 507.091 34.6061 507.917 37.969 507.019C40.0617 506.459 42.1082 505.232 43.8583 503.13L37.8688 471.575Z" fill="#C8E5FA"/>
<path d="M62.5836 464.972C64.9375 460.486 67.9818 457.135 71.6316 455.012C74.9197 453.099 78.5372 452.303 82.0936 452.71C87.8917 453.374 92.4991 457.104 93.832 462.212C94.6023 465.165 94.2044 468.357 92.6809 471.443C91.4403 473.957 89.482 476.371 86.8427 478.646C89.1106 481.679 89.4549 485.813 87.5293 489.639C86.1439 492.391 83.5368 494.845 80.1738 495.743C78.0812 496.302 75.6951 496.259 73.13 495.31L62.5836 464.972Z" fill="#94AABB"/>
<path d="M31.6461 455.563C28.2807 456.462 24.8112 454.456 23.9121 451.091C23.0129 447.725 25.0195 444.256 28.385 443.357C31.7504 442.458 35.2197 444.464 36.1188 447.829C37.0179 451.195 35.0117 454.664 31.6461 455.563ZM29.7658 448.525C29.2505 448.663 28.9431 449.194 29.0808 449.71C29.2184 450.225 29.7498 450.532 30.2652 450.395C30.7803 450.257 31.0876 449.726 30.95 449.21C30.8123 448.695 30.2811 448.388 29.7658 448.525Z" fill="#211915"/>
<path d="M43.8615 459.87L38.6927 461.25C38.3765 460.067 35.7139 455.345 32.1344 453.526L34.5585 448.757C39.6746 451.357 43.1948 457.374 43.8615 459.87Z" fill="#211915"/>
<path d="M59.9916 447.99C56.6262 448.889 53.1569 446.883 52.2578 443.517C51.3586 440.152 53.3651 436.683 56.7305 435.783C60.0959 434.884 63.5654 436.891 64.4645 440.256C65.3636 443.622 63.3571 447.091 59.9916 447.99ZM58.1114 440.952C57.5963 441.09 57.2888 441.621 57.4265 442.136C57.5641 442.652 58.0955 442.959 58.6108 442.821C59.126 442.684 59.4335 442.152 59.2958 441.637C59.1582 441.122 58.6267 440.815 58.1114 440.952Z" fill="#211915"/>
<path d="M56.7203 456.434L51.5516 457.815C50.8849 455.319 50.9351 448.348 54.0727 443.543L58.5523 446.467C56.3569 449.83 56.4042 455.25 56.7203 456.434Z" fill="#211915"/>
<path d="M55.6224 488.472C46.3352 490.953 36.7609 485.416 34.2798 476.129C31.7987 466.842 37.3359 457.268 46.6229 454.786C55.9101 452.305 65.4842 457.842 67.9653 467.129C70.4463 476.416 64.9096 485.991 55.6224 488.472Z" fill="#211915"/>
<path d="M76.3136 490.61C79.0845 500.981 72.9228 511.635 62.5509 514.406C52.1791 517.177 41.5252 511.015 38.7543 500.644C35.9834 490.272 42.145 479.618 52.5167 476.847C62.8884 474.076 73.5427 480.238 76.3136 490.61Z" fill="#FFAB00"/>
<path d="M76.3137 490.609C79.0846 500.981 72.9228 511.635 62.551 514.406C59.3369 502.375 55.0795 486.44 52.5166 476.847C62.8885 474.076 73.5427 480.237 76.3137 490.609Z" fill="#BD7F00"/>
<path d="M76.6458 499.196L42.749 508.252C44.1866 509.933 45.8944 511.347 47.7866 512.444L74.3697 505.342C75.4629 503.448 76.2382 501.37 76.6458 499.196Z" fill="#211915"/>
<path d="M75.4452 488.073L38.2417 498.012C38.3512 498.888 38.5202 499.767 38.7544 500.644C38.9887 501.521 39.2807 502.367 39.6226 503.181L76.8259 493.241C76.7167 492.366 76.5479 491.487 76.3136 490.61C76.0793 489.733 75.7876 488.887 75.4452 488.073Z" fill="#211915"/>
<path d="M40.6981 485.912C39.6052 487.806 38.8302 489.883 38.4224 492.058L72.319 483.002C70.8815 481.321 69.1734 479.906 67.2813 478.81L40.6981 485.912Z" fill="#211915"/>
<path d="M65.0887 513.539C64.275 513.881 63.428 514.172 62.5513 514.406C63.6785 518.625 64.4222 521.409 64.4222 521.409L67.0067 520.718L65.0887 513.539Z" fill="#835E10"/>
<path d="M76.6459 499.197L59.6975 503.725C60.1746 505.511 60.6393 507.25 61.0784 508.893L74.3685 505.343C75.4618 503.449 76.2374 501.371 76.6451 499.197" fill="#191310"/>
<path d="M75.4451 488.072L56.8435 493.042C57.298 494.743 57.7621 496.48 58.2244 498.211L76.826 493.241C76.7236 492.421 76.5691 491.598 76.3574 490.776C76.3556 490.77 76.354 490.764 76.3525 490.757C76.3488 490.743 76.3453 490.73 76.3416 490.716C76.3383 490.704 76.3353 490.691 76.332 490.679C76.3305 490.674 76.3289 490.668 76.3274 490.662C76.3227 490.644 76.318 490.627 76.3133 490.609C76.3086 490.592 76.3039 490.574 76.2992 490.557C76.2977 490.551 76.2962 490.545 76.2946 490.539C76.2914 490.527 76.2882 490.515 76.2847 490.503C76.281 490.489 76.2772 490.475 76.2733 490.462C76.2716 490.455 76.27 490.449 76.2681 490.443C76.0421 489.625 75.7657 488.835 75.4451 488.072Z" fill="#191310"/>
<path d="M67.28 478.81L53.9897 482.36C54.4128 483.944 54.8785 485.687 55.3707 487.529L72.3189 483.001C70.9172 481.362 69.2584 479.977 67.4223 478.892L67.4228 478.893C67.3752 478.865 67.3279 478.838 67.28 478.81Z" fill="#191310"/>
</g>
<g clip-path="url(#clip3_209_1337)" filter="url(#filter3_d_209_1337)">
<path d="M375.332 404.623L371.552 402.335L375.796 395.324L379.576 397.612L375.332 404.623Z" fill="#B17E15"/>
<path d="M387.926 359.151C387.095 355.051 385.454 351.691 383.05 349.165C380.884 346.89 378.199 345.424 375.285 344.926C370.534 344.114 366.02 346.008 363.784 349.75C362.492 351.914 362.071 354.537 362.566 357.336C362.97 359.616 363.966 361.982 365.533 364.395C363.035 366.277 361.808 369.475 362.452 372.954C362.915 375.456 364.416 378.003 366.875 379.492C368.406 380.418 370.308 380.935 372.561 380.774L387.926 359.151Z" fill="#C8E5FA"/>
<path d="M393.901 346.284C391.44 344.794 390.649 341.58 392.139 339.119C393.629 336.657 396.843 335.867 399.304 337.357C401.765 338.847 402.555 342.061 401.066 344.522C399.576 346.983 396.362 347.773 393.901 346.284ZM397.016 341.137C396.639 340.909 396.147 341.03 395.919 341.407C395.691 341.783 395.812 342.276 396.189 342.504C396.565 342.732 397.058 342.611 397.286 342.234C397.514 341.857 397.393 341.365 397.016 341.137Z" fill="#211915"/>
<path d="M398.326 356.023L394.546 353.735C395.07 352.869 396.358 348.582 395.394 345.409L399.621 344.124C401 348.658 399.431 354.198 398.326 356.023Z" fill="#211915"/>
<path d="M414.63 358.831C412.169 357.342 411.378 354.128 412.868 351.666C414.358 349.205 417.572 348.415 420.033 349.905C422.494 351.395 423.285 354.609 421.795 357.07C420.305 359.531 417.091 360.321 414.63 358.831ZM417.745 353.685C417.368 353.457 416.876 353.578 416.648 353.954C416.42 354.331 416.541 354.823 416.918 355.052C417.295 355.28 417.787 355.159 418.015 354.782C418.243 354.405 418.122 353.913 417.745 353.685Z" fill="#211915"/>
<path d="M407.73 361.714L403.95 359.427C405.054 357.602 409.234 353.643 413.892 352.762L414.713 357.103C411.454 357.719 408.253 360.849 407.73 361.714Z" fill="#211915"/>
<path d="M388.022 379.392C381.23 375.281 379.049 366.411 383.16 359.62C387.271 352.828 396.142 350.647 402.933 354.758C409.725 358.869 411.905 367.739 407.795 374.531C403.683 381.322 394.814 383.503 388.022 379.392Z" fill="#211915"/>
<path d="M398.588 392.938C393.997 400.522 384.127 402.949 376.542 398.358C368.957 393.767 366.53 383.896 371.121 376.312C375.712 368.727 385.583 366.3 393.168 370.891C400.752 375.482 403.179 385.353 398.588 392.938Z" fill="#FFAB00"/>
<path d="M393.665 398.05L368.876 383.045C368.697 384.863 368.833 386.689 369.262 388.444L388.702 400.211C390.456 399.778 392.137 399.051 393.665 398.05Z" fill="#211915"/>
<path d="M399.602 390.969L372.395 374.501C371.936 375.067 371.509 375.671 371.121 376.312C370.733 376.953 370.396 377.611 370.107 378.28L397.314 394.749C397.773 394.182 398.2 393.579 398.588 392.938C398.976 392.296 399.313 391.639 399.602 390.969Z" fill="#211915"/>
<path d="M381.007 369.04C379.254 369.472 377.573 370.2 376.045 371.201L400.833 386.205C401.012 384.387 400.877 382.561 400.447 380.807L381.007 369.04Z" fill="#211915"/>
<path d="M375.332 404.623L371.552 402.335L375.796 395.324L379.576 397.612L375.332 404.623Z" fill="#B17E15"/>
<path d="M387.926 359.151C387.095 355.051 385.454 351.691 383.05 349.165C380.884 346.89 378.199 345.424 375.285 344.926C370.534 344.114 366.02 346.008 363.784 349.75C362.492 351.914 362.071 354.537 362.566 357.336C362.97 359.616 363.966 361.982 365.533 364.395C363.035 366.277 361.808 369.475 362.452 372.954C362.915 375.456 364.416 378.003 366.875 379.492C368.406 380.418 370.308 380.935 372.561 380.774L387.926 359.151Z" fill="#C8E5FA"/>
<path d="M406 370.092C410.018 368.927 413.756 368.823 417.108 369.782C420.129 370.645 422.673 372.344 424.465 374.695C427.387 378.528 427.803 383.406 425.523 387.122C424.206 389.271 422.077 390.86 419.367 391.719C417.161 392.418 414.602 392.633 411.737 392.363C411.229 395.45 408.964 398.02 405.584 399.062C403.152 399.812 400.199 399.664 397.74 398.175C396.209 397.249 394.87 395.803 393.967 393.732L406 370.092Z" fill="#94AABB"/>
<path d="M393.901 346.284C391.44 344.794 390.649 341.58 392.139 339.119C393.629 336.657 396.843 335.867 399.304 337.357C401.765 338.847 402.555 342.061 401.066 344.522C399.576 346.983 396.362 347.773 393.901 346.284ZM397.016 341.137C396.639 340.909 396.147 341.03 395.919 341.407C395.691 341.783 395.812 342.276 396.189 342.504C396.565 342.732 397.058 342.611 397.286 342.234C397.514 341.857 397.393 341.365 397.016 341.137Z" fill="#211915"/>
<path d="M398.326 356.023L394.546 353.735C395.07 352.869 396.358 348.582 395.394 345.409L399.621 344.124C401 348.658 399.431 354.198 398.326 356.023Z" fill="#211915"/>
<path d="M414.63 358.831C412.169 357.342 411.378 354.128 412.868 351.666C414.358 349.205 417.572 348.415 420.033 349.905C422.494 351.395 423.285 354.609 421.795 357.07C420.305 359.531 417.091 360.321 414.63 358.831ZM417.745 353.685C417.368 353.457 416.876 353.578 416.648 353.954C416.42 354.331 416.541 354.823 416.918 355.052C417.295 355.28 417.787 355.159 418.015 354.782C418.243 354.405 418.122 353.913 417.745 353.685Z" fill="#211915"/>
<path d="M407.73 361.714L403.95 359.427C405.054 357.602 409.234 353.643 413.892 352.762L414.713 357.103C411.454 357.719 408.253 360.849 407.73 361.714Z" fill="#211915"/>
<path d="M388.022 379.392C381.23 375.281 379.049 366.411 383.16 359.62C387.271 352.828 396.142 350.647 402.933 354.758C409.725 358.869 411.905 367.739 407.795 374.531C403.683 381.322 394.814 383.503 388.022 379.392Z" fill="#211915"/>
<path d="M398.588 392.938C393.997 400.522 384.127 402.949 376.542 398.358C368.957 393.767 366.53 383.896 371.121 376.312C375.712 368.727 385.583 366.3 393.168 370.891C400.752 375.482 403.179 385.353 398.588 392.938Z" fill="#FFAB00"/>
<path d="M398.588 392.938C393.997 400.523 384.127 402.95 376.542 398.358C381.867 389.56 388.921 377.907 393.167 370.892C400.752 375.483 403.179 385.353 398.588 392.938Z" fill="#BD7F00"/>
<path d="M393.665 398.05L368.876 383.045C368.697 384.863 368.833 386.689 369.262 388.444L388.702 400.211C390.456 399.778 392.137 399.051 393.665 398.05Z" fill="#211915"/>
<path d="M399.602 390.969L372.395 374.501C371.936 375.067 371.509 375.671 371.121 376.312C370.733 376.953 370.396 377.611 370.107 378.28L397.314 394.749C397.773 394.182 398.2 393.579 398.588 392.938C398.976 392.296 399.313 391.639 399.602 390.969Z" fill="#211915"/>
<path d="M381.007 369.04C379.254 369.472 377.573 370.2 376.045 371.201L400.833 386.205C401.012 384.387 400.877 382.561 400.447 380.807L381.007 369.04Z" fill="#211915"/>
<path d="M378.51 399.374C377.841 399.085 377.183 398.747 376.542 398.359C374.674 401.444 373.442 403.48 373.442 403.48L375.332 404.624L378.51 399.374Z" fill="#835E10"/>
<path d="M393.664 398.049L381.27 390.547C380.479 391.853 379.71 393.125 378.982 394.327L388.701 400.21C390.455 399.777 392.136 399.05 393.664 398.049" fill="#191310"/>
<path d="M399.602 390.969L385.999 382.735C385.246 383.98 384.477 385.25 383.711 386.515L397.314 394.749C397.744 394.219 398.146 393.656 398.514 393.06C398.517 393.055 398.519 393.051 398.522 393.046C398.528 393.036 398.535 393.026 398.541 393.016C398.546 393.007 398.552 392.998 398.557 392.989C398.56 392.985 398.562 392.981 398.565 392.977C398.572 392.964 398.58 392.951 398.588 392.938C398.596 392.925 398.604 392.913 398.611 392.9C398.614 392.896 398.616 392.891 398.619 392.887C398.624 392.878 398.63 392.869 398.635 392.86C398.641 392.85 398.647 392.84 398.653 392.83C398.656 392.825 398.659 392.821 398.661 392.816C399.019 392.214 399.332 391.597 399.602 390.969Z" fill="#191310"/>
<path d="M400.446 380.807L390.727 374.924C390.026 376.082 389.254 377.357 388.439 378.704L400.833 386.206C401.007 384.433 400.883 382.653 400.479 380.939L400.478 380.94C400.468 380.895 400.457 380.851 400.446 380.807Z" fill="#191310"/>
</g>
<g clip-path="url(#clip4_209_1337)" filter="url(#filter4_d_209_1337)">
<path d="M500.014 64.6123C512.994 64.8422 525.596 64.8219 537.835 64.599L526.305 50.3058C523.685 47.0584 524.195 42.3015 527.442 39.6823C530.692 37.0615 535.445 37.5711 538.066 40.8185L556.829 64.0792C638.855 61.0672 702.529 48.79 744.165 37.9374C748.107 36.9103 751.904 35.8793 755.583 34.8506L720.071 24.2988C716.071 23.1103 713.792 18.9044 714.98 14.9042C716.168 10.9048 720.375 8.6277 724.373 9.8138L781.838 26.8884C812.553 16.7956 828.768 8.55055 828.983 8.43989C832.692 6.52903 837.244 7.98321 839.157 11.6904C841.071 15.3983 839.616 19.9557 835.908 21.8689C834.675 22.5056 805.06 37.6257 748.6 52.3959C740.659 54.4743 732.723 56.4023 724.809 58.1931L707.445 82.2861C705.969 84.3349 703.656 85.4244 701.311 85.4244C699.779 85.4244 698.235 84.9607 696.9 83.9983C693.515 81.5583 692.748 76.8372 695.188 73.4512L702.848 62.823C634.023 76.3315 568.317 79.8851 518.317 79.8851C511.857 79.8851 505.655 79.8259 499.745 79.7207C495.572 79.6459 492.251 76.2052 492.325 72.0328C492.399 67.8604 495.865 64.532 500.014 64.6123Z" fill="#995C0D"/>
<path d="M607.651 121.873C611.825 121.873 615.207 118.49 615.207 114.317V55.9685C615.207 51.7961 611.825 48.4131 607.651 48.4131C603.477 48.4131 600.096 51.7961 600.096 55.9685V114.318C600.097 118.49 603.478 121.873 607.651 121.873Z" fill="#B27214"/>
<path d="M469.901 265.531C464.915 260.545 461.832 253.664 461.832 246.049C461.832 230.827 474.162 218.488 489.393 218.488H513.035C505.43 218.488 498.539 215.415 493.543 210.419C488.557 205.442 485.474 198.552 485.474 190.937C485.474 175.716 497.815 163.396 513.035 163.396H549.693V163.386C542.873 163.386 536.628 160.908 531.813 156.788C531.259 156.324 530.715 155.831 530.201 155.317C525.215 150.331 522.132 143.441 522.132 135.825C522.132 120.614 534.472 108.274 549.693 108.274H665.619C673.224 108.274 680.115 111.357 685.101 116.343C690.087 121.329 693.169 128.22 693.169 135.825C693.169 144.226 689.412 151.741 683.489 156.788C679.5 160.203 674.514 162.479 669.034 163.164V163.396H702.266C709.872 163.396 716.762 166.468 721.748 171.464C726.744 176.441 729.827 183.321 729.827 190.936C729.827 206.167 717.487 218.487 702.266 218.487H725.919C733.534 218.487 740.415 221.579 745.411 226.566C750.388 231.552 753.48 238.433 753.48 246.048C753.48 261.259 741.14 273.609 725.919 273.609H702.266C706.064 273.609 709.691 274.374 712.994 275.775C716.288 277.165 719.26 279.189 721.748 281.678C726.744 286.664 729.827 293.544 729.827 301.16C729.827 316.38 717.487 328.721 702.266 328.721H669.034V328.932C675.279 329.697 680.88 332.558 685.101 336.779C690.087 341.765 693.169 348.656 693.169 356.271C693.169 371.492 680.829 383.822 665.619 383.822H549.693C542.088 383.822 535.197 380.74 530.201 375.753C525.215 370.767 522.132 363.887 522.132 356.271C522.132 341.172 534.281 328.901 549.331 328.721H513.036C505.431 328.721 498.54 325.628 493.544 320.642C488.558 315.656 485.475 308.775 485.475 301.16C485.475 285.948 497.815 273.609 513.036 273.609H489.393C481.777 273.609 474.887 270.517 469.901 265.531ZM549.693 328.721V328.711C549.572 328.711 549.472 328.711 549.351 328.721H549.693Z" fill="#F7B239"/>
<path d="M567.301 218.487C561.932 226.334 558.789 235.823 558.789 246.048C558.789 256.272 561.932 265.762 567.301 273.609H567.311C576.106 286.473 590.893 294.914 607.656 294.914C624.419 294.914 639.206 286.473 648.001 273.609C653.37 265.761 656.513 256.272 656.513 246.048C656.513 235.823 653.37 226.334 648.001 218.487C639.206 205.623 624.419 197.191 607.656 197.191C590.893 197.191 576.106 205.623 567.311 218.487H567.301Z" fill="#171717"/>
<path d="M659.927 135.823C659.927 128.218 656.845 121.327 651.858 116.341C646.872 111.355 639.982 108.272 632.377 108.272H665.619C673.225 108.272 680.115 111.355 685.101 116.341C690.087 121.327 693.17 128.218 693.17 135.823C693.17 151.045 680.83 163.384 665.619 163.384H632.377C647.587 163.385 659.927 151.045 659.927 135.823Z" fill="#E09B2D"/>
<path d="M696.584 190.936C696.584 183.33 693.502 176.44 688.515 171.454C683.529 166.468 676.639 163.385 669.033 163.385H702.276C709.882 163.385 716.772 166.467 721.758 171.454C726.744 176.44 729.827 183.33 729.827 190.936C729.827 206.157 717.487 218.497 702.276 218.497H669.033C684.245 218.497 696.584 206.156 696.584 190.936Z" fill="#E09B2D"/>
<path d="M720.237 246.048C720.237 238.443 717.155 231.552 712.168 226.566C707.182 221.58 700.292 218.497 692.686 218.497H725.929C733.534 218.497 740.425 221.579 745.411 226.566C750.397 231.552 753.48 238.443 753.48 246.048C753.48 261.269 741.14 273.609 725.929 273.609H692.686C707.897 273.609 720.237 261.269 720.237 246.048Z" fill="#E09B2D"/>
<path d="M696.584 301.16C696.584 293.555 693.502 286.664 688.515 281.678C683.529 276.692 676.639 273.609 669.033 273.609H702.276C709.882 273.609 716.772 276.692 721.758 281.678C726.744 286.665 729.827 293.555 729.827 301.16C729.827 316.381 717.487 328.721 702.276 328.721H669.033C684.245 328.721 696.584 316.381 696.584 301.16Z" fill="#E09B2D"/>
<path d="M659.927 356.272C659.927 348.666 656.845 341.776 651.858 336.79C646.872 331.804 639.982 328.721 632.377 328.721H665.619C673.225 328.721 680.115 331.803 685.101 336.79C690.087 341.776 693.17 348.666 693.17 356.272C693.17 371.492 680.83 383.832 665.619 383.832H632.377C647.587 383.832 659.927 371.492 659.927 356.272Z" fill="#E09B2D"/>
</g>
<defs>
<filter id="filter0_d_209_1337" x="160" y="53" width="125.793" height="125.793" filterUnits="userSpaceOnUse" color-interpolation-filters="sRGB">
<feFlood flood-opacity="0" result="BackgroundImageFix"/>
<feColorMatrix in="SourceAlpha" type="matrix" values="0 0 0 0 0 0 0 0 0 0 0 0 0 0 0 0 0 0 127 0" result="hardAlpha"/>
<feOffset dy="4"/>
<feGaussianBlur stdDeviation="2"/>
<feColorMatrix type="matrix" values="0 0 0 0 0 0 0 0 0 0 0 0 0 0 0 0 0 0 0.25 0"/>
<feBlend mode="normal" in2="BackgroundImageFix" result="effect1_dropShadow_209_1337"/>
<feBlend mode="normal" in="SourceGraphic" in2="effect1_dropShadow_209_1337" result="shape"/>
</filter>
<filter id="filter1_d_209_1337" x="726" y="398" width="102.673" height="102.673" filterUnits="userSpaceOnUse" color-interpolation-filters="sRGB">
<feFlood flood-opacity="0" result="BackgroundImageFix"/>
<feColorMatrix in="SourceAlpha" type="matrix" values="0 0 0 0 0 0 0 0 0 0 0 0 0 0 0 0 0 0 127 0" result="hardAlpha"/>
<feOffset dy="4"/>
<feGaussianBlur stdDeviation="2"/>
<feColorMatrix type="matrix" values="0 0 0 0 0 0 0 0 0 0 0 0 0 0 0 0 0 0 0.25 0"/>
<feBlend mode="normal" in2="BackgroundImageFix" result="effect1_dropShadow_209_1337"/>
<feBlend mode="normal" in="SourceGraphic" in2="effect1_dropShadow_209_1337" result="shape"/>
</filter>
<filter id="filter2_d_209_1337" x="-4" y="427" width="114.98" height="114.979" filterUnits="userSpaceOnUse" color-interpolation-filters="sRGB">
<feFlood flood-opacity="0" result="BackgroundImageFix"/>
<feColorMatrix in="SourceAlpha" type="matrix" values="0 0 0 0 0 0 0 0 0 0 0 0 0 0 0 0 0 0 127 0" result="hardAlpha"/>
<feOffset dy="4"/>
<feGaussianBlur stdDeviation="2"/>
<feColorMatrix type="matrix" values="0 0 0 0 0 0 0 0 0 0 0 0 0 0 0 0 0 0 0.25 0"/>
<feBlend mode="normal" in2="BackgroundImageFix" result="effect1_dropShadow_209_1337"/>
<feBlend mode="normal" in="SourceGraphic" in2="effect1_dropShadow_209_1337" result="shape"/>
</filter>
<filter id="filter3_d_209_1337" x="338" y="324" width="107.11" height="107.11" filterUnits="userSpaceOnUse" color-interpolation-filters="sRGB">
<feFlood flood-opacity="0" result="BackgroundImageFix"/>
<feColorMatrix in="SourceAlpha" type="matrix" values="0 0 0 0 0 0 0 0 0 0 0 0 0 0 0 0 0 0 127 0" result="hardAlpha"/>
<feOffset dy="4"/>
<feGaussianBlur stdDeviation="2"/>
<feColorMatrix type="matrix" values="0 0 0 0 0 0 0 0 0 0 0 0 0 0 0 0 0 0 0.25 0"/>
<feBlend mode="normal" in2="BackgroundImageFix" result="effect1_dropShadow_209_1337"/>
<feBlend mode="normal" in="SourceGraphic" in2="effect1_dropShadow_209_1337" result="shape"/>
</filter>
<filter id="filter4_d_209_1337" x="437" y="0" width="407" height="407" filterUnits="userSpaceOnUse" color-interpolation-filters="sRGB">
<feFlood flood-opacity="0" result="BackgroundImageFix"/>
<feColorMatrix in="SourceAlpha" type="matrix" values="0 0 0 0 0 0 0 0 0 0 0 0 0 0 0 0 0 0 127 0" result="hardAlpha"/>
<feOffset dy="4"/>
<feGaussianBlur stdDeviation="2"/>
<feColorMatrix type="matrix" values="0 0 0 0 0 0 0 0 0 0 0 0 0 0 0 0 0 0 0.6 0"/>
<feBlend mode="normal" in2="BackgroundImageFix" result="effect1_dropShadow_209_1337"/>
<feBlend mode="normal" in="SourceGraphic" in2="effect1_dropShadow_209_1337" result="shape"/>
</filter>
<clipPath id="clip0_209_1337">
<rect width="83.4723" height="83.4723" fill="white" transform="matrix(0.751998 0.659166 0.659166 -0.751998 164 115.771)"/>
</clipPath>
<clipPath id="clip1_209_1337">
<rect width="69.2858" height="69.2858" fill="white" transform="translate(730 457.967) rotate(-59.94)"/>
</clipPath>
<clipPath id="clip2_209_1337">
<rect width="87.3856" height="87.3856" fill="white" transform="translate(0 449.555) rotate(-14.9579)"/>
</clipPath>
<clipPath id="clip3_209_1337">
<rect width="72.1689" height="72.1689" fill="white" transform="translate(379.371 324) rotate(31.1867)"/>
</clipPath>
<clipPath id="clip4_209_1337">
<rect width="399" height="399" fill="white" transform="matrix(-1 0 0 1 840 0)"/>
</clipPath>
</defs>
</svg>
