<svg width="755" height="203" viewBox="0 0 755 203" fill="none" xmlns="http://www.w3.org/2000/svg">
<path d="M131.087 0H86.057L0 203H755L695.461 0H640.924C591.65 32.8826 555.4 35.3579 494.327 21.6311C488.551 32.345 486.935 37.171 467.81 36.6066H276.683L257.671 23.2951C204.336 38.8907 176.48 34.6798 131.087 0Z" fill="#CA8752"/>
<path d="M598.5 80.5C646.5 62.5 695.5 0 695.5 0L755 203H255C255 203 333 189 368 165C403 141 400 110.5 445.5 96C491 81.5 550.5 98.5 598.5 80.5Z" fill="url(#paint0_linear_124_531)"/>
<g filter="url(#filter0_d_124_531)">
<path fill-rule="evenodd" clip-rule="evenodd" d="M463.606 106.571L459.281 156.742C459.13 158.494 460.511 160 462.27 160H630.5C632.157 160 633.5 158.657 633.5 157V151.5V105.5C633.5 103.567 631.956 102 630.023 102H468.578C465.983 102 463.829 103.985 463.606 106.571Z" fill="#502F57" shape-rendering="crispEdges"/>
<path d="M633.5 105.5V151.5H640.698C642.637 151.5 644.067 149.688 643.616 147.802L633.5 105.5Z" fill="#330D3C" shape-rendering="crispEdges"/>
<path d="M633.5 151.5C634 151.5 634 151.5 634 151.5C634 151.499 634 151.499 634 151.499C634 151.498 634 151.498 634 151.497C634 151.497 634 151.496 634 151.495C634 151.494 634 151.493 634 151.492C634 151.491 634 151.49 634 151.489C634 151.488 634 151.487 634 151.485C634 151.484 634 151.482 634 151.481C634 151.479 634 151.477 634 151.475C634 151.474 634 151.472 634 151.47C634 151.468 634 151.466 634 151.463C634 151.461 634 151.459 634 151.456C634 151.454 634 151.451 634 151.449C634 151.446 634 151.444 634 151.441C634 151.438 634 151.435 634 151.432C634 151.429 634 151.426 634 151.423C634 151.42 634 151.416 634 151.413C634 151.409 634 151.406 634 151.402C634 151.399 634 151.395 634 151.391C634 151.388 634 151.384 634 151.38C634 151.376 634 151.372 634 151.367C634 151.363 634 151.359 634 151.355C634 151.35 634 151.346 634 151.341C634 151.337 634 151.332 634 151.327C634 151.323 634 151.318 634 151.313C634 151.308 634 151.303 634 151.298C634 151.292 634 151.287 634 151.282C634 151.277 634 151.271 634 151.266C634 151.26 634 151.255 634 151.249C634 151.243 634 151.237 634 151.231C634 151.226 634 151.22 634 151.214C634 151.207 634 151.201 634 151.195C634 151.189 634 151.182 634 151.176C634 151.169 634 151.163 634 151.156C634 151.15 634 151.143 634 151.136C634 151.129 634 151.122 634 151.115C634 151.108 634 151.101 634 151.094C634 151.087 634 151.08 634 151.072C634 151.065 634 151.057 634 151.05C634 151.042 634 151.034 634 151.027C634 151.019 634 151.011 634 151.003C634 150.995 634 150.987 634 150.979C634 150.971 634 150.963 634 150.954C634 150.946 634 150.938 634 150.929C634 150.921 634 150.912 634 150.904C634 150.895 634 150.886 634 150.877C634 150.868 634 150.86 634 150.851C634 150.841 634 150.832 634 150.823C634 150.814 634 150.805 634 150.795C634 150.786 634 150.776 634 150.767C634 150.757 634 150.748 634 150.738C634 150.728 634 150.718 634 150.708C634 150.699 634 150.688 634 150.678C634 150.668 634 150.658 634 150.648C634 150.638 634 150.627 634 150.617C634 150.606 634 150.596 634 150.585C634 150.575 634 150.564 634 150.553C634 150.542 634 150.531 634 150.52C634 150.509 634 150.498 634 150.487C634 150.476 634 150.465 634 150.453C634 150.442 634 150.431 634 150.419C634 150.408 634 150.396 634 150.385C634 150.373 634 150.361 634 150.349C634 150.337 634 150.325 634 150.313C634 150.301 634 150.289 634 150.277C634 150.265 634 150.253 634 150.24C634 150.228 634 150.216 634 150.203C634 150.191 634 150.178 634 150.165C634 150.153 634 150.14 634 150.127C634 150.114 634 150.101 634 150.088C634 150.075 634 150.062 634 150.049C634 150.036 634 150.022 634 150.009C634 149.995 634 149.982 634 149.969C634 149.955 634 149.941 634 149.928C634 149.914 634 149.9 634 149.886C634 149.872 634 149.858 634 149.844C634 149.83 634 149.816 634 149.802C634 149.788 634 149.774 634 149.759C634 149.745 634 149.73 634 149.716C634 149.701 634 149.687 634 149.672C634 149.657 634 149.643 634 149.628C634 149.613 634 149.598 634 149.583C634 149.568 634 149.553 634 149.538C634 149.523 634 149.507 634 149.492C634 149.477 634 149.461 634 149.446C634 149.43 634 149.415 634 149.399C634 149.383 634 149.368 634 149.352C634 149.336 634 149.32 634 149.304C634 149.288 634 149.272 634 149.256C634 149.24 634 149.224 634 149.207C634 149.191 634 149.175 634 149.158C634 149.142 634 149.125 634 149.109C634 149.092 634 149.075 634 149.058C634 149.042 634 149.025 634 149.008C634 148.991 634 148.974 634 148.957C634 148.94 634 148.923 634 148.905C634 148.888 634 148.871 634 148.854C634 148.836 634 148.819 634 148.801C634 148.784 634 148.766 634 148.748C634 148.731 634 148.713 634 148.695C634 148.677 634 148.659 634 148.641C634 148.623 634 148.605 634 148.587C634 148.569 634 148.551 634 148.532C634 148.514 634 148.496 634 148.477C634 148.459 634 148.44 634 148.421C634 148.403 634 148.384 634 148.365C634 148.347 634 148.328 634 148.309C634 148.29 634 148.271 634 148.252C634 148.233 634 148.214 634 148.195C634 148.175 634 148.156 634 148.137C634 148.117 634 148.098 634 148.078C634 148.059 634 148.039 634 148.02C634 148 634 147.98 634 147.961C634 147.941 634 147.921 634 147.901C634 147.881 634 147.861 634 147.841C634 147.821 634 147.801 634 147.78C634 147.76 634 147.74 634 147.719C634 147.699 634 147.679 634 147.658C634 147.638 634 147.617 634 147.596C634 147.576 634 147.555 634 147.534C634 147.513 634 147.492 634 147.472C634 147.451 634 147.43 634 147.408C634 147.387 634 147.366 634 147.345C634 147.324 634 147.302 634 147.281C634 147.26 634 147.238 634 147.217C634 147.195 634 147.174 634 147.152C634 147.13 634 147.109 634 147.087C634 147.065 634 147.043 634 147.021C634 146.999 634 146.977 634 146.955C634 146.933 634 146.911 634 146.889C634 146.866 634 146.844 634 146.822C634 146.8 634 146.777 634 146.755C634 146.732 634 146.71 634 146.687C634 146.664 634 146.642 634 146.619C634 146.596 634 146.573 634 146.55C634 146.528 634 146.505 634 146.482C634 146.458 634 146.435 634 146.412C634 146.389 634 146.366 634 146.343C634 146.319 634 146.296 634 146.272C634 146.249 634 146.226 634 146.202C634 146.178 634 146.155 634 146.131C634 146.107 634 146.084 634 146.06C634 146.036 634 146.012 634 145.988C634 145.964 634 145.94 634 145.916C634 145.892 634 145.868 634 145.844C634 145.819 634 145.795 634 145.771C634 145.746 634 145.722 634 145.697C634 145.673 634 145.648 634 145.624C634 145.599 634 145.575 634 145.55C634 145.525 634 145.5 634 145.475C634 145.451 634 145.426 634 145.401C634 145.376 634 145.351 634 145.325C634 145.3 634 145.275 634 145.25C634 145.225 634 145.199 634 145.174C634 145.149 634 145.123 634 145.098C634 145.072 634 145.047 634 145.021C634 144.995 634 144.97 634 144.944C634 144.918 634 144.892 634 144.867C634 144.841 634 144.815 634 144.789C634 144.763 634 144.737 634 144.711C634 144.685 634 144.658 634 144.632C634 144.606 634 144.58 634 144.553C634 144.527 634 144.5 634 144.474C634 144.447 634 144.421 634 144.394C634 144.368 634 144.341 634 144.314C634 144.288 634 144.261 634 144.234C634 144.207 634 144.18 634 144.153C634 144.126 634 144.099 634 144.072C634 144.045 634 144.018 634 143.991C634 143.964 634 143.936 634 143.909C634 143.882 634 143.854 634 143.827C634 143.8 634 143.772 634 143.745C634 143.717 634 143.689 634 143.662C634 143.634 634 143.606 634 143.579C634 143.551 634 143.523 634 143.495C634 143.467 634 143.439 634 143.411C634 143.383 634 143.355 634 143.327C634 143.299 634 143.271 634 143.242C634 143.214 634 143.186 634 143.158C634 143.129 634 143.101 634 143.072C634 143.044 634 143.015 634 142.987C634 142.958 634 142.93 634 142.901C634 142.872 634 142.844 634 142.815C634 142.786 634 142.757 634 142.728C634 142.699 634 142.67 634 142.641C634 142.612 634 142.583 634 142.554C634 142.525 634 142.496 634 142.467C634 142.437 634 142.408 634 142.379C634 142.349 634 142.32 634 142.291C634 142.261 634 142.232 634 142.202C634 142.172 634 142.143 634 142.113C634 142.084 634 142.054 634 142.024C634 141.994 634 141.964 634 141.935C634 141.905 634 141.875 634 141.845C634 141.815 634 141.785 634 141.755C634 141.725 634 141.694 634 141.664C634 141.634 634 141.604 634 141.574C634 141.543 634 141.513 634 141.482C634 141.452 634 141.422 634 141.391C634 141.361 634 141.33 634 141.299C634 141.269 634 141.238 634 141.208C634 141.177 634 141.146 634 141.115C634 141.084 634 141.054 634 141.023C634 140.992 634 140.961 634 140.93C634 140.899 634 140.868 634 140.837C634 140.806 634 140.774 634 140.743C634 140.712 634 140.681 634 140.649C634 140.618 634 140.587 634 140.555C634 140.524 634 140.493 634 140.461C634 140.43 634 140.398 634 140.366C634 140.335 634 140.303 634 140.271C634 140.24 634 140.208 634 140.176C634 140.144 634 140.113 634 140.081C634 140.049 634 140.017 634 139.985C634 139.953 634 139.921 634 139.889C634 139.857 634 139.825 634 139.792C634 139.76 634 139.728 634 139.696C634 139.664 634 139.631 634 139.599C634 139.566 634 139.534 634 139.502C634 139.469 634 139.437 634 139.404C634 139.372 634 139.339 634 139.306C634 139.274 634 139.241 634 139.208C634 139.176 634 139.143 634 139.11C634 139.077 634 139.044 634 139.011C634 138.979 634 138.946 634 138.913C634 138.88 634 138.847 634 138.814C634 138.78 634 138.747 634 138.714C634 138.681 634 138.648 634 138.614C634 138.581 634 138.548 634 138.515C634 138.481 634 138.448 634 138.414C634 138.381 634 138.347 634 138.314C634 138.28 634 138.247 634 138.213C634 138.18 634 138.146 634 138.112C634 138.079 634 138.045 634 138.011C634 137.977 634 137.944 634 137.91C634 137.876 634 137.842 634 137.808C634 137.774 634 137.74 634 137.706C634 137.672 634 137.638 634 137.604C634 137.57 634 137.536 634 137.501C634 137.467 634 137.433 634 137.399C634 137.364 634 137.33 634 137.296C634 137.261 634 137.227 634 137.192C634 137.158 634 137.124 634 137.089C634 137.055 634 137.02 634 136.985C634 136.951 634 136.916 634 136.881C634 136.847 634 136.812 634 136.777C634 136.743 634 136.708 634 136.673C634 136.638 634 136.603 634 136.568C634 136.533 634 136.498 634 136.463C634 136.428 634 136.393 634 136.358C634 136.323 634 136.288 634 136.253C634 136.218 634 136.183 634 136.147C634 136.112 634 136.077 634 136.042C634 136.006 634 135.971 634 135.936C634 135.9 634 135.865 634 135.83C634 135.794 634 135.759 634 135.723C634 135.688 634 135.652 634 135.616C634 135.581 634 135.545 634 135.51C634 135.474 634 135.438 634 135.402C634 135.367 634 135.331 634 135.295C634 135.259 634 135.223 634 135.188C634 135.152 634 135.116 634 135.08C634 135.044 634 135.008 634 134.972C634 134.936 634 134.9 634 134.864C634 134.828 634 134.792 634 134.755C634 134.719 634 134.683 634 134.647C634 134.611 634 134.574 634 134.538C634 134.502 634 134.465 634 134.429C634 134.393 634 134.356 634 134.32C634 134.283 634 134.247 634 134.21C634 134.174 634 134.137 634 134.101C634 134.064 634 134.028 634 133.991C634 133.954 634 133.918 634 133.881C634 133.844 634 133.808 634 133.771C634 133.734 634 133.697 634 133.661C634 133.624 634 133.587 634 133.55C634 133.513 634 133.476 634 133.439C634 133.402 634 133.365 634 133.328C634 133.291 634 133.254 634 133.217C634 133.18 634 133.143 634 133.106C634 133.069 634 133.032 634 132.994C634 132.957 634 132.92 634 132.883C634 132.845 634 132.808 634 132.771C634 132.734 634 132.696 634 132.659C634 132.621 634 132.584 634 132.547C634 132.509 634 132.472 634 132.434C634 132.397 634 132.359 634 132.322C634 132.284 634 132.247 634 132.209C634 132.171 634 132.134 634 132.096C634 132.058 634 132.021 634 131.983C634 131.945 634 131.907 634 131.87C634 131.832 634 131.794 634 131.756C634 131.718 634 131.681 634 131.643C634 131.605 634 131.567 634 131.529C634 131.491 634 131.453 634 131.415C634 131.377 634 131.339 634 131.301C634 131.263 634 131.225 634 131.187C634 131.149 634 131.111 634 131.072C634 131.034 634 130.996 634 130.958C634 130.92 634 130.881 634 130.843C634 130.805 634 130.767 634 130.728C634 130.69 634 130.652 634 130.613C634 130.575 634 130.537 634 130.498C634 130.46 634 130.421 634 130.383C634 130.344 634 130.306 634 130.267C634 130.229 634 130.19 634 130.152C634 130.113 634 130.075 634 130.036C634 129.998 634 129.959 634 129.92C634 129.882 634 129.843 634 129.804C634 129.766 634 129.727 634 129.688C634 129.649 634 129.611 634 129.572C634 129.533 634 129.494 634 129.455C634 129.417 634 129.378 634 129.339C634 129.3 634 129.261 634 129.222C634 129.183 634 129.144 634 129.105C634 129.066 634 129.027 634 128.988C634 128.949 634 128.91 634 128.871C634 128.832 634 128.793 634 128.754C634 128.715 634 128.676 634 128.637C634 128.598 634 128.558 634 128.519C634 128.48 634 128.441 634 128.402C634 128.362 634 128.323 634 128.284C634 128.245 634 128.205 634 128.166C634 128.127 634 128.087 634 128.048C634 128.009 634 127.969 634 127.93C634 127.891 634 127.851 634 127.812C634 127.773 634 127.733 634 127.694C634 127.654 634 127.615 634 127.575C634 127.536 634 127.496 634 127.457C634 127.417 634 127.378 634 127.338C634 127.299 634 127.259 634 127.219C634 127.18 634 127.14 634 127.101C634 127.061 634 127.021 634 126.982C634 126.942 634 126.902 634 126.863C634 126.823 634 126.783 634 126.743C634 126.704 634 126.664 634 126.624C634 126.584 634 126.545 634 126.505C634 126.465 634 126.425 634 126.385C634 126.346 634 126.306 634 126.266C634 126.226 634 126.186 634 126.146C634 126.106 634 126.066 634 126.027C634 125.987 634 125.947 634 125.907C634 125.867 634 125.827 634 125.787C634 125.747 634 125.707 634 125.667C634 125.627 634 125.587 634 125.547C634 125.507 634 125.467 634 125.427C634 125.387 634 125.346 634 125.306C634 125.266 634 125.226 634 125.186C634 125.146 634 125.106 634 125.066C634 125.026 634 124.985 634 124.945C634 124.905 634 124.865 634 124.825C634 124.784 634 124.744 634 124.704C634 124.664 634 124.624 634 124.583C634 124.543 634 124.503 634 124.463C634 124.422 634 124.382 634 124.342C634 124.301 634 124.261 634 124.221C634 124.18 634 124.14 634 124.1C634 124.059 634 124.019 634 123.979C634 123.938 634 123.898 634 123.858C634 123.817 634 123.777 634 123.736C634 123.696 634 123.656 634 123.615C634 123.575 634 123.534 634 123.494C634 123.454 634 123.413 634 123.373C634 123.332 634 123.292 634 123.251C634 123.211 634 123.17 634 123.13C634 123.089 634 123.049 634 123.008C634 122.968 634 122.927 634 122.887C634 122.846 634 122.806 634 122.765C634 122.724 634 122.684 634 122.643C634 122.603 634 122.562 634 122.522C634 122.481 634 122.44 634 122.4C634 122.359 634 122.319 634 122.278C634 122.237 634 122.197 634 122.156C634 122.116 634 122.075 634 122.034C634 121.994 634 121.953 634 121.912C634 121.872 634 121.831 634 121.79C634 121.75 634 121.709 634 121.668C634 121.628 634 121.587 634 121.546C634 121.506 634 121.465 634 121.424C634 121.384 634 121.343 634 121.302C634 121.261 634 121.221 634 121.18C634 121.139 634 121.099 634 121.058C634 121.017 634 120.976 634 120.936C634 120.895 634 120.854 634 120.813C634 120.773 634 120.732 634 120.691C634 120.65 634 120.61 634 120.569C634 120.528 634 120.487 634 120.447C634 120.406 634 120.365 634 120.324C634 120.284 634 120.243 634 120.202C634 120.161 634 120.12 634 120.08C634 120.039 634 119.998 634 119.957C634 119.916 634 119.876 634 119.835C634 119.794 634 119.753 634 119.713C634 119.672 634 119.631 634 119.59C634 119.549 634 119.509 634 119.468C634 119.427 634 119.386 634 119.345C634 119.304 634 119.264 634 119.223C634 119.182 634 119.141 634 119.1C634 119.06 634 119.019 634 118.978C634 118.937 634 118.896 634 118.856C634 118.815 634 118.774 634 118.733C634 118.692 634 118.652 634 118.611C634 118.57 634 118.529 634 118.488C634 118.447 634 118.407 634 118.366C634 118.325 634 118.284 634 118.243C634 118.203 634 118.162 634 118.121C634 118.08 634 118.039 634 117.999C634 117.958 634 117.917 634 117.876C634 117.835 634 117.795 634 117.754C634 117.713 634 117.672 634 117.631C634 117.591 634 117.55 634 117.509C634 117.468 634 117.428 634 117.387C634 117.346 634 117.305 634 117.264C634 117.224 634 117.183 634 117.142C634 117.101 634 117.061 634 117.02C634 116.979 634 116.938 634 116.898C634 116.857 634 116.816 634 116.775C634 116.735 634 116.694 634 116.653C634 116.612 634 116.572 634 116.531C634 116.49 634 116.45 634 116.409C634 116.368 634 116.327 634 116.287C634 116.246 634 116.205 634 116.165C634 116.124 634 116.083 634 116.043C634 116.002 634 115.961 634 115.921C634 115.88 634 115.839 634 115.799C634 115.758 634 115.717 634 115.677C634 115.636 634 115.595 634 115.555C634 115.514 634 115.474 634 115.433C634 115.392 634 115.352 634 115.311C634 115.271 634 115.23 634 115.189C634 115.149 634 115.108 634 115.068C634 115.027 634 114.986 634 114.946C634 114.905 634 114.865 634 114.824C634 114.784 634 114.743 634 114.703C634 114.662 634 114.622 634 114.581C634 114.541 634 114.5 634 114.46C634 114.419 634 114.379 634 114.338C634 114.298 634 114.257 634 114.217C634 114.176 634 114.136 634 114.096C634 114.055 634 114.015 634 113.974C634 113.934 634 113.894 634 113.853C634 113.813 634 113.772 634 113.732C634 113.692 634 113.651 634 113.611C634 113.571 634 113.53 634 113.49C634 113.45 634 113.409 634 113.369C634 113.329 634 113.289 634 113.248C634 113.208 634 113.168 634 113.127C634 113.087 634 113.047 634 113.007C634 112.966 634 112.926 634 112.886C634 112.846 634 112.806 634 112.766C634 112.725 634 112.685 634 112.645C634 112.605 634 112.565 634 112.525C634 112.484 634 112.444 634 112.404C634 112.364 634 112.324 634 112.284C634 112.244 634 112.204 634 112.164C634 112.124 634 112.084 634 112.044C634 112.004 634 111.964 634 111.924C634 111.884 634 111.844 634 111.804C634 111.764 634 111.724 634 111.684C634 111.644 634 111.604 634 111.564C634 111.524 634 111.484 634 111.445C634 111.405 634 111.365 634 111.325C634 111.285 634 111.245 634 111.206C634 111.166 634 111.126 634 111.086C634 111.046 634 111.007 634 110.967C634 110.927 634 110.888 634 110.848C634 110.808 634 110.768 634 110.729C634 110.689 634 110.649 634 110.61C634 110.57 634 110.531 634 110.491C634 110.451 634 110.412 634 110.372C634 110.333 634 110.293 634 110.254C634 110.214 634 110.175 634 110.135C634 110.096 634 110.056 634 110.017C634 109.977 634 109.938 634 109.898C634 109.859 634 109.819 634 109.78C634 109.741 634 109.701 634 109.662C634 109.623 634 109.583 634 109.544C634 109.505 634 109.465 634 109.426C634 109.387 634 109.348 634 109.308C634 109.269 634 109.23 634 109.191C634 109.152 634 109.112 634 109.073C634 109.034 634 108.995 634 108.956C634 108.917 634 108.878 634 108.839C634 108.8 634 108.761 634 108.722C634 108.683 634 108.644 634 108.605C634 108.566 634 108.527 634 108.488C634 108.449 634 108.41 634 108.371C634 108.332 634 108.293 634 108.254C634 108.216 634 108.177 634 108.138C634 108.099 634 108.06 634 108.022C634 107.983 634 107.944 634 107.905C634 107.867 634 107.828 634 107.789C634 107.751 634 107.712 634 107.673C634 107.635 634 107.596 634 107.558C634 107.519 634 107.481 634 107.442C634 107.404 634 107.365 634 107.327C634 107.288 634 107.25 634 107.211C634 107.173 634 107.134 634 107.096C634 107.058 634 107.019 634 106.981C634 106.943 634 106.904 634 106.866C634 106.828 634 106.79 634 106.751C634 106.713 634 106.675 634 106.637C634 106.599 634 106.561 634 106.522C634 106.484 634 106.446 634 106.408C634 106.37 634 106.332 634 106.294C634 106.256 634 106.218 634 106.18C634 106.142 634 106.104 634 106.066C634 106.029 634 105.991 634 105.953C634 105.915 634 105.877 634 105.839C634 105.802 634 105.764 634 105.726C634 105.688 634 105.651 634 105.613C634 105.575 634 105.538 634 105.5H633C633 105.538 633 105.575 633 105.613C633 105.651 633 105.688 633 105.726C633 105.764 633 105.802 633 105.839C633 105.877 633 105.915 633 105.953C633 105.991 633 106.029 633 106.066C633 106.104 633 106.142 633 106.18C633 106.218 633 106.256 633 106.294C633 106.332 633 106.37 633 106.408C633 106.446 633 106.484 633 106.522C633 106.561 633 106.599 633 106.637C633 106.675 633 106.713 633 106.751C633 106.79 633 106.828 633 106.866C633 106.904 633 106.943 633 106.981C633 107.019 633 107.058 633 107.096C633 107.134 633 107.173 633 107.211C633 107.25 633 107.288 633 107.327C633 107.365 633 107.404 633 107.442C633 107.481 633 107.519 633 107.558C633 107.596 633 107.635 633 107.673C633 107.712 633 107.751 633 107.789C633 107.828 633 107.867 633 107.905C633 107.944 633 107.983 633 108.022C633 108.06 633 108.099 633 108.138C633 108.177 633 108.216 633 108.254C633 108.293 633 108.332 633 108.371C633 108.41 633 108.449 633 108.488C633 108.527 633 108.566 633 108.605C633 108.644 633 108.683 633 108.722C633 108.761 633 108.8 633 108.839C633 108.878 633 108.917 633 108.956C633 108.995 633 109.034 633 109.073C633 109.112 633 109.152 633 109.191C633 109.23 633 109.269 633 109.308C633 109.348 633 109.387 633 109.426C633 109.465 633 109.505 633 109.544C633 109.583 633 109.623 633 109.662C633 109.701 633 109.741 633 109.78C633 109.819 633 109.859 633 109.898C633 109.938 633 109.977 633 110.017C633 110.056 633 110.096 633 110.135C633 110.175 633 110.214 633 110.254C633 110.293 633 110.333 633 110.372C633 110.412 633 110.451 633 110.491C633 110.531 633 110.57 633 110.61C633 110.649 633 110.689 633 110.729C633 110.768 633 110.808 633 110.848C633 110.888 633 110.927 633 110.967C633 111.007 633 111.046 633 111.086C633 111.126 633 111.166 633 111.206C633 111.245 633 111.285 633 111.325C633 111.365 633 111.405 633 111.445C633 111.484 633 111.524 633 111.564C633 111.604 633 111.644 633 111.684C633 111.724 633 111.764 633 111.804C633 111.844 633 111.884 633 111.924C633 111.964 633 112.004 633 112.044C633 112.084 633 112.124 633 112.164C633 112.204 633 112.244 633 112.284C633 112.324 633 112.364 633 112.404C633 112.444 633 112.484 633 112.525C633 112.565 633 112.605 633 112.645C633 112.685 633 112.725 633 112.766C633 112.806 633 112.846 633 112.886C633 112.926 633 112.966 633 113.007C633 113.047 633 113.087 633 113.127C633 113.168 633 113.208 633 113.248C633 113.289 633 113.329 633 113.369C633 113.409 633 113.45 633 113.49C633 113.53 633 113.571 633 113.611C633 113.651 633 113.692 633 113.732C633 113.772 633 113.813 633 113.853C633 113.894 633 113.934 633 113.974C633 114.015 633 114.055 633 114.096C633 114.136 633 114.176 633 114.217C633 114.257 633 114.298 633 114.338C633 114.379 633 114.419 633 114.46C633 114.5 633 114.541 633 114.581C633 114.622 633 114.662 633 114.703C633 114.743 633 114.784 633 114.824C633 114.865 633 114.905 633 114.946C633 114.986 633 115.027 633 115.068C633 115.108 633 115.149 633 115.189C633 115.23 633 115.271 633 115.311C633 115.352 633 115.392 633 115.433C633 115.474 633 115.514 633 115.555C633 115.595 633 115.636 633 115.677C633 115.717 633 115.758 633 115.799C633 115.839 633 115.88 633 115.921C633 115.961 633 116.002 633 116.043C633 116.083 633 116.124 633 116.165C633 116.205 633 116.246 633 116.287C633 116.327 633 116.368 633 116.409C633 116.45 633 116.49 633 116.531C633 116.572 633 116.612 633 116.653C633 116.694 633 116.735 633 116.775C633 116.816 633 116.857 633 116.898C633 116.938 633 116.979 633 117.02C633 117.061 633 117.101 633 117.142C633 117.183 633 117.224 633 117.264C633 117.305 633 117.346 633 117.387C633 117.428 633 117.468 633 117.509C633 117.55 633 117.591 633 117.631C633 117.672 633 117.713 633 117.754C633 117.795 633 117.835 633 117.876C633 117.917 633 117.958 633 117.999C633 118.039 633 118.08 633 118.121C633 118.162 633 118.203 633 118.243C633 118.284 633 118.325 633 118.366C633 118.407 633 118.447 633 118.488C633 118.529 633 118.57 633 118.611C633 118.652 633 118.692 633 118.733C633 118.774 633 118.815 633 118.856C633 118.896 633 118.937 633 118.978C633 119.019 633 119.06 633 119.1C633 119.141 633 119.182 633 119.223C633 119.264 633 119.304 633 119.345C633 119.386 633 119.427 633 119.468C633 119.509 633 119.549 633 119.59C633 119.631 633 119.672 633 119.713C633 119.753 633 119.794 633 119.835C633 119.876 633 119.916 633 119.957C633 119.998 633 120.039 633 120.08C633 120.12 633 120.161 633 120.202C633 120.243 633 120.284 633 120.324C633 120.365 633 120.406 633 120.447C633 120.487 633 120.528 633 120.569C633 120.61 633 120.65 633 120.691C633 120.732 633 120.773 633 120.813C633 120.854 633 120.895 633 120.936C633 120.976 633 121.017 633 121.058C633 121.099 633 121.139 633 121.18C633 121.221 633 121.261 633 121.302C633 121.343 633 121.384 633 121.424C633 121.465 633 121.506 633 121.546C633 121.587 633 121.628 633 121.668C633 121.709 633 121.75 633 121.79C633 121.831 633 121.872 633 121.912C633 121.953 633 121.994 633 122.034C633 122.075 633 122.116 633 122.156C633 122.197 633 122.237 633 122.278C633 122.319 633 122.359 633 122.4C633 122.44 633 122.481 633 122.522C633 122.562 633 122.603 633 122.643C633 122.684 633 122.724 633 122.765C633 122.806 633 122.846 633 122.887C633 122.927 633 122.968 633 123.008C633 123.049 633 123.089 633 123.13C633 123.17 633 123.211 633 123.251C633 123.292 633 123.332 633 123.373C633 123.413 633 123.454 633 123.494C633 123.534 633 123.575 633 123.615C633 123.656 633 123.696 633 123.736C633 123.777 633 123.817 633 123.858C633 123.898 633 123.938 633 123.979C633 124.019 633 124.059 633 124.1C633 124.14 633 124.18 633 124.221C633 124.261 633 124.301 633 124.342C633 124.382 633 124.422 633 124.463C633 124.503 633 124.543 633 124.583C633 124.624 633 124.664 633 124.704C633 124.744 633 124.784 633 124.825C633 124.865 633 124.905 633 124.945C633 124.985 633 125.026 633 125.066C633 125.106 633 125.146 633 125.186C633 125.226 633 125.266 633 125.306C633 125.346 633 125.387 633 125.427C633 125.467 633 125.507 633 125.547C633 125.587 633 125.627 633 125.667C633 125.707 633 125.747 633 125.787C633 125.827 633 125.867 633 125.907C633 125.947 633 125.987 633 126.027C633 126.066 633 126.106 633 126.146C633 126.186 633 126.226 633 126.266C633 126.306 633 126.346 633 126.385C633 126.425 633 126.465 633 126.505C633 126.545 633 126.584 633 126.624C633 126.664 633 126.704 633 126.743C633 126.783 633 126.823 633 126.863C633 126.902 633 126.942 633 126.982C633 127.021 633 127.061 633 127.101C633 127.14 633 127.18 633 127.219C633 127.259 633 127.299 633 127.338C633 127.378 633 127.417 633 127.457C633 127.496 633 127.536 633 127.575C633 127.615 633 127.654 633 127.694C633 127.733 633 127.773 633 127.812C633 127.851 633 127.891 633 127.93C633 127.969 633 128.009 633 128.048C633 128.087 633 128.127 633 128.166C633 128.205 633 128.245 633 128.284C633 128.323 633 128.362 633 128.402C633 128.441 633 128.48 633 128.519C633 128.558 633 128.598 633 128.637C633 128.676 633 128.715 633 128.754C633 128.793 633 128.832 633 128.871C633 128.91 633 128.949 633 128.988C633 129.027 633 129.066 633 129.105C633 129.144 633 129.183 633 129.222C633 129.261 633 129.3 633 129.339C633 129.378 633 129.417 633 129.455C633 129.494 633 129.533 633 129.572C633 129.611 633 129.649 633 129.688C633 129.727 633 129.766 633 129.804C633 129.843 633 129.882 633 129.92C633 129.959 633 129.998 633 130.036C633 130.075 633 130.113 633 130.152C633 130.19 633 130.229 633 130.267C633 130.306 633 130.344 633 130.383C633 130.421 633 130.46 633 130.498C633 130.537 633 130.575 633 130.613C633 130.652 633 130.69 633 130.728C633 130.767 633 130.805 633 130.843C633 130.881 633 130.92 633 130.958C633 130.996 633 131.034 633 131.072C633 131.111 633 131.149 633 131.187C633 131.225 633 131.263 633 131.301C633 131.339 633 131.377 633 131.415C633 131.453 633 131.491 633 131.529C633 131.567 633 131.605 633 131.643C633 131.681 633 131.718 633 131.756C633 131.794 633 131.832 633 131.87C633 131.907 633 131.945 633 131.983C633 132.021 633 132.058 633 132.096C633 132.134 633 132.171 633 132.209C633 132.247 633 132.284 633 132.322C633 132.359 633 132.397 633 132.434C633 132.472 633 132.509 633 132.547C633 132.584 633 132.621 633 132.659C633 132.696 633 132.734 633 132.771C633 132.808 633 132.845 633 132.883C633 132.92 633 132.957 633 132.994C633 133.032 633 133.069 633 133.106C633 133.143 633 133.18 633 133.217C633 133.254 633 133.291 633 133.328C633 133.365 633 133.402 633 133.439C633 133.476 633 133.513 633 133.55C633 133.587 633 133.624 633 133.661C633 133.697 633 133.734 633 133.771C633 133.808 633 133.844 633 133.881C633 133.918 633 133.954 633 133.991C633 134.028 633 134.064 633 134.101C633 134.137 633 134.174 633 134.21C633 134.247 633 134.283 633 134.32C633 134.356 633 134.393 633 134.429C633 134.465 633 134.502 633 134.538C633 134.574 633 134.611 633 134.647C633 134.683 633 134.719 633 134.755C633 134.792 633 134.828 633 134.864C633 134.9 633 134.936 633 134.972C633 135.008 633 135.044 633 135.08C633 135.116 633 135.152 633 135.188C633 135.223 633 135.259 633 135.295C633 135.331 633 135.367 633 135.402C633 135.438 633 135.474 633 135.51C633 135.545 633 135.581 633 135.616C633 135.652 633 135.688 633 135.723C633 135.759 633 135.794 633 135.83C633 135.865 633 135.9 633 135.936C633 135.971 633 136.006 633 136.042C633 136.077 633 136.112 633 136.147C633 136.183 633 136.218 633 136.253C633 136.288 633 136.323 633 136.358C633 136.393 633 136.428 633 136.463C633 136.498 633 136.533 633 136.568C633 136.603 633 136.638 633 136.673C633 136.708 633 136.743 633 136.777C633 136.812 633 136.847 633 136.881C633 136.916 633 136.951 633 136.985C633 137.02 633 137.055 633 137.089C633 137.124 633 137.158 633 137.192C633 137.227 633 137.261 633 137.296C633 137.33 633 137.364 633 137.399C633 137.433 633 137.467 633 137.501C633 137.536 633 137.57 633 137.604C633 137.638 633 137.672 633 137.706C633 137.74 633 137.774 633 137.808C633 137.842 633 137.876 633 137.91C633 137.944 633 137.977 633 138.011C633 138.045 633 138.079 633 138.112C633 138.146 633 138.18 633 138.213C633 138.247 633 138.28 633 138.314C633 138.347 633 138.381 633 138.414C633 138.448 633 138.481 633 138.515C633 138.548 633 138.581 633 138.614C633 138.648 633 138.681 633 138.714C633 138.747 633 138.78 633 138.814C633 138.847 633 138.88 633 138.913C633 138.946 633 138.979 633 139.011C633 139.044 633 139.077 633 139.11C633 139.143 633 139.176 633 139.208C633 139.241 633 139.274 633 139.306C633 139.339 633 139.372 633 139.404C633 139.437 633 139.469 633 139.502C633 139.534 633 139.566 633 139.599C633 139.631 633 139.664 633 139.696C633 139.728 633 139.76 633 139.792C633 139.825 633 139.857 633 139.889C633 139.921 633 139.953 633 139.985C633 140.017 633 140.049 633 140.081C633 140.113 633 140.144 633 140.176C633 140.208 633 140.24 633 140.271C633 140.303 633 140.335 633 140.366C633 140.398 633 140.43 633 140.461C633 140.493 633 140.524 633 140.555C633 140.587 633 140.618 633 140.649C633 140.681 633 140.712 633 140.743C633 140.774 633 140.806 633 140.837C633 140.868 633 140.899 633 140.93C633 140.961 633 140.992 633 141.023C633 141.054 633 141.084 633 141.115C633 141.146 633 141.177 633 141.208C633 141.238 633 141.269 633 141.299C633 141.33 633 141.361 633 141.391C633 141.422 633 141.452 633 141.482C633 141.513 633 141.543 633 141.574C633 141.604 633 141.634 633 141.664C633 141.694 633 141.725 633 141.755C633 141.785 633 141.815 633 141.845C633 141.875 633 141.905 633 141.935C633 141.964 633 141.994 633 142.024C633 142.054 633 142.084 633 142.113C633 142.143 633 142.172 633 142.202C633 142.232 633 142.261 633 142.291C633 142.32 633 142.349 633 142.379C633 142.408 633 142.437 633 142.467C633 142.496 633 142.525 633 142.554C633 142.583 633 142.612 633 142.641C633 142.67 633 142.699 633 142.728C633 142.757 633 142.786 633 142.815C633 142.844 633 142.872 633 142.901C633 142.93 633 142.958 633 142.987C633 143.015 633 143.044 633 143.072C633 143.101 633 143.129 633 143.158C633 143.186 633 143.214 633 143.242C633 143.271 633 143.299 633 143.327C633 143.355 633 143.383 633 143.411C633 143.439 633 143.467 633 143.495C633 143.523 633 143.551 633 143.579C633 143.606 633 143.634 633 143.662C633 143.689 633 143.717 633 143.745C633 143.772 633 143.8 633 143.827C633 143.854 633 143.882 633 143.909C633 143.936 633 143.964 633 143.991C633 144.018 633 144.045 633 144.072C633 144.099 633 144.126 633 144.153C633 144.18 633 144.207 633 144.234C633 144.261 633 144.288 633 144.314C633 144.341 633 144.368 633 144.394C633 144.421 633 144.447 633 144.474C633 144.5 633 144.527 633 144.553C633 144.58 633 144.606 633 144.632C633 144.658 633 144.685 633 144.711C633 144.737 633 144.763 633 144.789C633 144.815 633 144.841 633 144.867C633 144.892 633 144.918 633 144.944C633 144.97 633 144.995 633 145.021C633 145.047 633 145.072 633 145.098C633 145.123 633 145.149 633 145.174C633 145.199 633 145.225 633 145.25C633 145.275 633 145.3 633 145.325C633 145.351 633 145.376 633 145.401C633 145.426 633 145.451 633 145.475C633 145.5 633 145.525 633 145.55C633 145.575 633 145.599 633 145.624C633 145.648 633 145.673 633 145.697C633 145.722 633 145.746 633 145.771C633 145.795 633 145.819 633 145.844C633 145.868 633 145.892 633 145.916C633 145.94 633 145.964 633 145.988C633 146.012 633 146.036 633 146.06C633 146.084 633 146.107 633 146.131C633 146.155 633 146.178 633 146.202C633 146.226 633 146.249 633 146.272C633 146.296 633 146.319 633 146.343C633 146.366 633 146.389 633 146.412C633 146.435 633 146.458 633 146.482C633 146.505 633 146.528 633 146.55C633 146.573 633 146.596 633 146.619C633 146.642 633 146.664 633 146.687C633 146.71 633 146.732 633 146.755C633 146.777 633 146.8 633 146.822C633 146.844 633 146.866 633 146.889C633 146.911 633 146.933 633 146.955C633 146.977 633 146.999 633 147.021C633 147.043 633 147.065 633 147.087C633 147.109 633 147.13 633 147.152C633 147.174 633 147.195 633 147.217C633 147.238 633 147.26 633 147.281C633 147.302 633 147.324 633 147.345C633 147.366 633 147.387 633 147.408C633 147.43 633 147.451 633 147.472C633 147.492 633 147.513 633 147.534C633 147.555 633 147.576 633 147.596C633 147.617 633 147.638 633 147.658C633 147.679 633 147.699 633 147.719C633 147.74 633 147.76 633 147.78C633 147.801 633 147.821 633 147.841C633 147.861 633 147.881 633 147.901C633 147.921 633 147.941 633 147.961C633 147.98 633 148 633 148.02C633 148.039 633 148.059 633 148.078C633 148.098 633 148.117 633 148.137C633 148.156 633 148.175 633 148.195C633 148.214 633 148.233 633 148.252C633 148.271 633 148.29 633 148.309C633 148.328 633 148.347 633 148.365C633 148.384 633 148.403 633 148.421C633 148.44 633 148.459 633 148.477C633 148.496 633 148.514 633 148.532C633 148.551 633 148.569 633 148.587C633 148.605 633 148.623 633 148.641C633 148.659 633 148.677 633 148.695C633 148.713 633 148.731 633 148.748C633 148.766 633 148.784 633 148.801C633 148.819 633 148.836 633 148.854C633 148.871 633 148.888 633 148.905C633 148.923 633 148.94 633 148.957C633 148.974 633 148.991 633 149.008C633 149.025 633 149.042 633 149.058C633 149.075 633 149.092 633 149.109C633 149.125 633 149.142 633 149.158C633 149.175 633 149.191 633 149.207C633 149.224 633 149.24 633 149.256C633 149.272 633 149.288 633 149.304C633 149.32 633 149.336 633 149.352C633 149.368 633 149.383 633 149.399C633 149.415 633 149.43 633 149.446C633 149.461 633 149.477 633 149.492C633 149.507 633 149.523 633 149.538C633 149.553 633 149.568 633 149.583C633 149.598 633 149.613 633 149.628C633 149.643 633 149.657 633 149.672C633 149.687 633 149.701 633 149.716C633 149.73 633 149.745 633 149.759C633 149.774 633 149.788 633 149.802C633 149.816 633 149.83 633 149.844C633 149.858 633 149.872 633 149.886C633 149.9 633 149.914 633 149.928C633 149.941 633 149.955 633 149.969C633 149.982 633 149.995 633 150.009C633 150.022 633 150.036 633 150.049C633 150.062 633 150.075 633 150.088C633 150.101 633 150.114 633 150.127C633 150.14 633 150.153 633 150.165C633 150.178 633 150.191 633 150.203C633 150.216 633 150.228 633 150.24C633 150.253 633 150.265 633 150.277C633 150.289 633 150.301 633 150.313C633 150.325 633 150.337 633 150.349C633 150.361 633 150.373 633 150.385C633 150.396 633 150.408 633 150.419C633 150.431 633 150.442 633 150.453C633 150.465 633 150.476 633 150.487C633 150.498 633 150.509 633 150.52C633 150.531 633 150.542 633 150.553C633 150.564 633 150.575 633 150.585C633 150.596 633 150.606 633 150.617C633 150.627 633 150.638 633 150.648C633 150.658 633 150.668 633 150.678C633 150.688 633 150.699 633 150.708C633 150.718 633 150.728 633 150.738C633 150.748 633 150.757 633 150.767C633 150.776 633 150.786 633 150.795C633 150.805 633 150.814 633 150.823C633 150.832 633 150.841 633 150.851C633 150.86 633 150.868 633 150.877C633 150.886 633 150.895 633 150.904C633 150.912 633 150.921 633 150.929C633 150.938 633 150.946 633 150.954C633 150.963 633 150.971 633 150.979C633 150.987 633 150.995 633 151.003C633 151.011 633 151.019 633 151.027C633 151.034 633 151.042 633 151.05C633 151.057 633 151.065 633 151.072C633 151.08 633 151.087 633 151.094C633 151.101 633 151.108 633 151.115C633 151.122 633 151.129 633 151.136C633 151.143 633 151.15 633 151.156C633 151.163 633 151.169 633 151.176C633 151.182 633 151.189 633 151.195C633 151.201 633 151.207 633 151.214C633 151.22 633 151.226 633 151.231C633 151.237 633 151.243 633 151.249C633 151.255 633 151.26 633 151.266C633 151.271 633 151.277 633 151.282C633 151.287 633 151.292 633 151.298C633 151.303 633 151.308 633 151.313C633 151.318 633 151.323 633 151.327C633 151.332 633 151.337 633 151.341C633 151.346 633 151.35 633 151.355C633 151.359 633 151.363 633 151.367C633 151.372 633 151.376 633 151.38C633 151.384 633 151.388 633 151.391C633 151.395 633 151.399 633 151.402C633 151.406 633 151.409 633 151.413C633 151.416 633 151.42 633 151.423C633 151.426 633 151.429 633 151.432C633 151.435 633 151.438 633 151.441C633 151.444 633 151.446 633 151.449C633 151.451 633 151.454 633 151.456C633 151.459 633 151.461 633 151.463C633 151.466 633 151.468 633 151.47C633 151.472 633 151.474 633 151.475C633 151.477 633 151.479 633 151.481C633 151.482 633 151.484 633 151.485C633 151.487 633 151.488 633 151.489C633 151.49 633 151.491 633 151.492C633 151.493 633 151.494 633 151.495C633 151.496 633 151.497 633 151.497C633 151.498 633 151.498 633 151.499C633 151.499 633 151.499 633 151.5C633 151.5 633 151.5 633.5 151.5ZM459.779 156.785L464.104 106.614L463.108 106.528L458.783 156.699L459.779 156.785ZM464.104 106.614C464.305 104.285 466.244 102.5 468.578 102.5V101.5C465.722 101.5 463.353 103.685 463.108 106.528L464.104 106.614ZM468.578 102.5H630.023V101.5H468.578V102.5ZM630.023 102.5C631.675 102.5 633 103.839 633 105.5H634C634 103.295 632.236 101.5 630.023 101.5V102.5ZM633.014 105.616L643.129 147.919L644.102 147.686L633.986 105.384L633.014 105.616ZM643.129 147.919C643.505 149.49 642.314 151 640.698 151V152C642.96 152 644.628 149.886 644.102 147.686L643.129 147.919ZM640.698 151H633.5V152H640.698V151ZM633 151.5V157H634V151.5H633ZM633 157C633 158.381 631.881 159.5 630.5 159.5V160.5C632.433 160.5 634 158.933 634 157H633ZM630.5 159.5H462.27V160.5H630.5V159.5ZM462.27 159.5C460.804 159.5 459.653 158.245 459.779 156.785L458.783 156.699C458.606 158.743 460.218 160.5 462.27 160.5V159.5ZM634 151.5V105.5H633V151.5H634ZM630.023 101.5C629.907 101.5 629.791 101.5 629.675 101.5C629.559 101.5 629.443 101.5 629.326 101.5C629.21 101.5 629.094 101.5 628.978 101.5C628.861 101.5 628.745 101.5 628.628 101.5C628.512 101.5 628.395 101.5 628.278 101.5C628.162 101.5 628.045 101.5 627.928 101.5C627.811 101.5 627.694 101.5 627.577 101.5C627.46 101.5 627.343 101.5 627.226 101.5C627.109 101.5 626.991 101.5 626.874 101.5C626.757 101.5 626.639 101.5 626.522 101.5C626.404 101.5 626.286 101.5 626.169 101.5C626.051 101.5 625.933 101.5 625.815 101.5C625.698 101.5 625.58 101.5 625.462 101.5C625.344 101.5 625.226 101.5 625.107 101.5C624.989 101.5 624.871 101.5 624.753 101.5C624.634 101.5 624.516 101.5 624.398 101.5C624.279 101.5 624.161 101.5 624.042 101.5C623.923 101.5 623.805 101.5 623.686 101.5C623.567 101.5 623.448 101.5 623.329 101.5C623.21 101.5 623.091 101.5 622.972 101.5C622.853 101.5 622.734 101.5 622.615 101.5C622.496 101.5 622.376 101.5 622.257 101.5C622.138 101.5 622.018 101.5 621.899 101.5C621.779 101.5 621.66 101.5 621.54 101.5C621.42 101.5 621.301 101.5 621.181 101.5C621.061 101.5 620.941 101.5 620.821 101.5C620.701 101.5 620.581 101.5 620.461 101.5C620.341 101.5 620.221 101.5 620.101 101.5C619.981 101.5 619.86 101.5 619.74 101.5C619.62 101.5 619.499 101.5 619.379 101.5C619.258 101.5 619.138 101.5 619.017 101.5C618.896 101.5 618.776 101.5 618.655 101.5C618.534 101.5 618.413 101.5 618.292 101.5C618.172 101.5 618.051 101.5 617.93 101.5C617.809 101.5 617.687 101.5 617.566 101.5C617.445 101.5 617.324 101.5 617.203 101.5C617.081 101.5 616.96 101.5 616.839 101.5C616.717 101.5 616.596 101.5 616.474 101.5C616.353 101.5 616.231 101.5 616.109 101.5C615.988 101.5 615.866 101.5 615.744 101.5C615.623 101.5 615.501 101.5 615.379 101.5C615.257 101.5 615.135 101.5 615.013 101.5C614.891 101.5 614.769 101.5 614.647 101.5C614.525 101.5 614.402 101.5 614.28 101.5C614.158 101.5 614.036 101.5 613.913 101.5C613.791 101.5 613.668 101.5 613.546 101.5C613.423 101.5 613.301 101.5 613.178 101.5C613.056 101.5 612.933 101.5 612.81 101.5C612.687 101.5 612.565 101.5 612.442 101.5C612.319 101.5 612.196 101.5 612.073 101.5C611.95 101.5 611.827 101.5 611.704 101.5C611.581 101.5 611.458 101.5 611.335 101.5C611.212 101.5 611.089 101.5 610.965 101.5C610.842 101.5 610.719 101.5 610.595 101.5C610.472 101.5 610.348 101.5 610.225 101.5C610.102 101.5 609.978 101.5 609.854 101.5C609.731 101.5 609.607 101.5 609.483 101.5C609.36 101.5 609.236 101.5 609.112 101.5C608.989 101.5 608.865 101.5 608.741 101.5C608.617 101.5 608.493 101.5 608.369 101.5C608.245 101.5 608.121 101.5 607.997 101.5C607.873 101.5 607.749 101.5 607.625 101.5C607.5 101.5 607.376 101.5 607.252 101.5C607.128 101.5 607.003 101.5 606.879 101.5C606.755 101.5 606.63 101.5 606.506 101.5C606.381 101.5 606.257 101.5 606.132 101.5C606.008 101.5 605.883 101.5 605.758 101.5C605.634 101.5 605.509 101.5 605.384 101.5C605.26 101.5 605.135 101.5 605.01 101.5C604.885 101.5 604.76 101.5 604.635 101.5C604.511 101.5 604.386 101.5 604.261 101.5C604.136 101.5 604.011 101.5 603.886 101.5C603.761 101.5 603.635 101.5 603.51 101.5C603.385 101.5 603.26 101.5 603.135 101.5C603.01 101.5 602.884 101.5 602.759 101.5C602.634 101.5 602.508 101.5 602.383 101.5C602.258 101.5 602.132 101.5 602.007 101.5C601.881 101.5 601.756 101.5 601.63 101.5C601.505 101.5 601.379 101.5 601.253 101.5C601.128 101.5 601.002 101.5 600.876 101.5C600.751 101.5 600.625 101.5 600.499 101.5C600.374 101.5 600.248 101.5 600.122 101.5C599.996 101.5 599.87 101.5 599.744 101.5C599.618 101.5 599.493 101.5 599.367 101.5C599.241 101.5 599.115 101.5 598.989 101.5C598.863 101.5 598.737 101.5 598.61 101.5C598.484 101.5 598.358 101.5 598.232 101.5C598.106 101.5 597.98 101.5 597.853 101.5C597.727 101.5 597.601 101.5 597.475 101.5C597.348 101.5 597.222 101.5 597.096 101.5C596.969 101.5 596.843 101.5 596.717 101.5C596.59 101.5 596.464 101.5 596.337 101.5C596.211 101.5 596.084 101.5 595.958 101.5C595.831 101.5 595.705 101.5 595.578 101.5C595.452 101.5 595.325 101.5 595.198 101.5C595.072 101.5 594.945 101.5 594.819 101.5C594.692 101.5 594.565 101.5 594.438 101.5C594.312 101.5 594.185 101.5 594.058 101.5C593.931 101.5 593.805 101.5 593.678 101.5C593.551 101.5 593.424 101.5 593.297 101.5C593.17 101.5 593.043 101.5 592.916 101.5C592.79 101.5 592.663 101.5 592.536 101.5C592.409 101.5 592.282 101.5 592.155 101.5C592.028 101.5 591.901 101.5 591.774 101.5C591.646 101.5 591.519 101.5 591.392 101.5C591.265 101.5 591.138 101.5 591.011 101.5C590.884 101.5 590.757 101.5 590.629 101.5C590.502 101.5 590.375 101.5 590.248 101.5C590.121 101.5 589.993 101.5 589.866 101.5C589.739 101.5 589.612 101.5 589.484 101.5C589.357 101.5 589.23 101.5 589.102 101.5C588.975 101.5 588.848 101.5 588.72 101.5C588.593 101.5 588.466 101.5 588.338 101.5C588.211 101.5 588.084 101.5 587.956 101.5C587.829 101.5 587.701 101.5 587.574 101.5C587.446 101.5 587.319 101.5 587.191 101.5C587.064 101.5 586.937 101.5 586.809 101.5C586.682 101.5 586.554 101.5 586.427 101.5C586.299 101.5 586.171 101.5 586.044 101.5C585.916 101.5 585.789 101.5 585.661 101.5C585.534 101.5 585.406 101.5 585.279 101.5C585.151 101.5 585.023 101.5 584.896 101.5C584.768 101.5 584.64 101.5 584.513 101.5C584.385 101.5 584.258 101.5 584.13 101.5C584.002 101.5 583.875 101.5 583.747 101.5C583.619 101.5 583.492 101.5 583.364 101.5C583.236 101.5 583.109 101.5 582.981 101.5C582.853 101.5 582.726 101.5 582.598 101.5C582.47 101.5 582.342 101.5 582.215 101.5C582.087 101.5 581.959 101.5 581.832 101.5C581.704 101.5 581.576 101.5 581.448 101.5C581.321 101.5 581.193 101.5 581.065 101.5C580.937 101.5 580.81 101.5 580.682 101.5C580.554 101.5 580.426 101.5 580.299 101.5C580.171 101.5 580.043 101.5 579.915 101.5C579.788 101.5 579.66 101.5 579.532 101.5C579.404 101.5 579.277 101.5 579.149 101.5C579.021 101.5 578.893 101.5 578.766 101.5C578.638 101.5 578.51 101.5 578.382 101.5C578.255 101.5 578.127 101.5 577.999 101.5C577.871 101.5 577.744 101.5 577.616 101.5C577.488 101.5 577.36 101.5 577.233 101.5C577.105 101.5 576.977 101.5 576.849 101.5C576.722 101.5 576.594 101.5 576.466 101.5C576.338 101.5 576.211 101.5 576.083 101.5C575.955 101.5 575.827 101.5 575.7 101.5C575.572 101.5 575.444 101.5 575.317 101.5C575.189 101.5 575.061 101.5 574.934 101.5C574.806 101.5 574.678 101.5 574.551 101.5C574.423 101.5 574.295 101.5 574.168 101.5C574.04 101.5 573.912 101.5 573.785 101.5C573.657 101.5 573.529 101.5 573.402 101.5C573.274 101.5 573.146 101.5 573.019 101.5C572.891 101.5 572.764 101.5 572.636 101.5C572.508 101.5 572.381 101.5 572.253 101.5C572.126 101.5 571.998 101.5 571.871 101.5C571.743 101.5 571.616 101.5 571.488 101.5C571.361 101.5 571.233 101.5 571.106 101.5C570.978 101.5 570.851 101.5 570.723 101.5C570.596 101.5 570.468 101.5 570.341 101.5C570.213 101.5 570.086 101.5 569.959 101.5C569.831 101.5 569.704 101.5 569.576 101.5C569.449 101.5 569.322 101.5 569.194 101.5C569.067 101.5 568.94 101.5 568.812 101.5C568.685 101.5 568.558 101.5 568.43 101.5C568.303 101.5 568.176 101.5 568.049 101.5C567.921 101.5 567.794 101.5 567.667 101.5C567.54 101.5 567.413 101.5 567.285 101.5C567.158 101.5 567.031 101.5 566.904 101.5C566.777 101.5 566.65 101.5 566.523 101.5C566.396 101.5 566.268 101.5 566.141 101.5C566.014 101.5 565.887 101.5 565.76 101.5C565.633 101.5 565.506 101.5 565.379 101.5C565.252 101.5 565.125 101.5 564.999 101.5C564.872 101.5 564.745 101.5 564.618 101.5C564.491 101.5 564.364 101.5 564.237 101.5C564.111 101.5 563.984 101.5 563.857 101.5C563.73 101.5 563.603 101.5 563.477 101.5C563.35 101.5 563.223 101.5 563.097 101.5C562.97 101.5 562.843 101.5 562.717 101.5C562.59 101.5 562.464 101.5 562.337 101.5C562.21 101.5 562.084 101.5 561.957 101.5C561.831 101.5 561.704 101.5 561.578 101.5C561.452 101.5 561.325 101.5 561.199 101.5C561.072 101.5 560.946 101.5 560.82 101.5C560.693 101.5 560.567 101.5 560.441 101.5C560.314 101.5 560.188 101.5 560.062 101.5C559.936 101.5 559.81 101.5 559.684 101.5C559.557 101.5 559.431 101.5 559.305 101.5C559.179 101.5 559.053 101.5 558.927 101.5C558.801 101.5 558.675 101.5 558.549 101.5C558.423 101.5 558.297 101.5 558.171 101.5C558.045 101.5 557.92 101.5 557.794 101.5C557.668 101.5 557.542 101.5 557.417 101.5C557.291 101.5 557.165 101.5 557.039 101.5C556.914 101.5 556.788 101.5 556.663 101.5C556.537 101.5 556.411 101.5 556.286 101.5C556.16 101.5 556.035 101.5 555.909 101.5C555.784 101.5 555.659 101.5 555.533 101.5C555.408 101.5 555.283 101.5 555.157 101.5C555.032 101.5 554.907 101.5 554.782 101.5C554.656 101.5 554.531 101.5 554.406 101.5C554.281 101.5 554.156 101.5 554.031 101.5C553.906 101.5 553.781 101.5 553.656 101.5C553.531 101.5 553.406 101.5 553.281 101.5C553.156 101.5 553.031 101.5 552.907 101.5C552.782 101.5 552.657 101.5 552.532 101.5C552.408 101.5 552.283 101.5 552.158 101.5C552.034 101.5 551.909 101.5 551.785 101.5C551.66 101.5 551.536 101.5 551.411 101.5C551.287 101.5 551.162 101.5 551.038 101.5C550.914 101.5 550.789 101.5 550.665 101.5C550.541 101.5 550.417 101.5 550.293 101.5C550.168 101.5 550.044 101.5 549.92 101.5C549.796 101.5 549.672 101.5 549.548 101.5C549.424 101.5 549.3 101.5 549.176 101.5C549.053 101.5 548.929 101.5 548.805 101.5C548.681 101.5 548.558 101.5 548.434 101.5C548.31 101.5 548.187 101.5 548.063 101.5C547.939 101.5 547.816 101.5 547.693 101.5C547.569 101.5 547.446 101.5 547.322 101.5C547.199 101.5 547.076 101.5 546.952 101.5C546.829 101.5 546.706 101.5 546.583 101.5C546.46 101.5 546.337 101.5 546.214 101.5C546.091 101.5 545.968 101.5 545.845 101.5C545.722 101.5 545.599 101.5 545.476 101.5C545.353 101.5 545.231 101.5 545.108 101.5C544.985 101.5 544.863 101.5 544.74 101.5C544.617 101.5 544.495 101.5 544.372 101.5C544.25 101.5 544.128 101.5 544.005 101.5C543.883 101.5 543.761 101.5 543.638 101.5C543.516 101.5 543.394 101.5 543.272 101.5C543.15 101.5 543.028 101.5 542.906 101.5C542.784 101.5 542.662 101.5 542.54 101.5C542.418 101.5 542.296 101.5 542.174 101.5C542.053 101.5 541.931 101.5 541.809 101.5C541.688 101.5 541.566 101.5 541.445 101.5C541.323 101.5 541.202 101.5 541.08 101.5C540.959 101.5 540.838 101.5 540.716 101.5C540.595 101.5 540.474 101.5 540.353 101.5C540.232 101.5 540.111 101.5 539.99 101.5C539.869 101.5 539.748 101.5 539.627 101.5C539.506 101.5 539.385 101.5 539.265 101.5C539.144 101.5 539.023 101.5 538.903 101.5C538.782 101.5 538.662 101.5 538.541 101.5C538.421 101.5 538.3 101.5 538.18 101.5C538.06 101.5 537.939 101.5 537.819 101.5C537.699 101.5 537.579 101.5 537.459 101.5C537.339 101.5 537.219 101.5 537.099 101.5C536.979 101.5 536.859 101.5 536.739 101.5C536.62 101.5 536.5 101.5 536.38 101.5C536.261 101.5 536.141 101.5 536.022 101.5C535.902 101.5 535.783 101.5 535.664 101.5C535.544 101.5 535.425 101.5 535.306 101.5C535.187 101.5 535.067 101.5 534.948 101.5C534.829 101.5 534.71 101.5 534.592 101.5C534.473 101.5 534.354 101.5 534.235 101.5C534.116 101.5 533.998 101.5 533.879 101.5C533.761 101.5 533.642 101.5 533.524 101.5C533.405 101.5 533.287 101.5 533.169 101.5C533.05 101.5 532.932 101.5 532.814 101.5C532.696 101.5 532.578 101.5 532.46 101.5C532.342 101.5 532.224 101.5 532.106 101.5C531.988 101.5 531.871 101.5 531.753 101.5C531.635 101.5 531.518 101.5 531.4 101.5C531.283 101.5 531.165 101.5 531.048 101.5C530.931 101.5 530.813 101.5 530.696 101.5C530.579 101.5 530.462 101.5 530.345 101.5C530.228 101.5 530.111 101.5 529.994 101.5C529.878 101.5 529.761 101.5 529.644 101.5C529.527 101.5 529.411 101.5 529.294 101.5C529.178 101.5 529.061 101.5 528.945 101.5C528.829 101.5 528.713 101.5 528.596 101.5C528.48 101.5 528.364 101.5 528.248 101.5C528.132 101.5 528.016 101.5 527.9 101.5C527.785 101.5 527.669 101.5 527.553 101.5C527.438 101.5 527.322 101.5 527.207 101.5C527.091 101.5 526.976 101.5 526.86 101.5C526.745 101.5 526.63 101.5 526.515 101.5C526.4 101.5 526.285 101.5 526.17 101.5C526.055 101.5 525.94 101.5 525.825 101.5C525.711 101.5 525.596 101.5 525.481 101.5C525.367 101.5 525.252 101.5 525.138 101.5C525.024 101.5 524.909 101.5 524.795 101.5C524.681 101.5 524.567 101.5 524.453 101.5C524.339 101.5 524.225 101.5 524.111 101.5C523.997 101.5 523.883 101.5 523.77 101.5C523.656 101.5 523.543 101.5 523.429 101.5C523.316 101.5 523.202 101.5 523.089 101.5C522.976 101.5 522.863 101.5 522.75 101.5C522.636 101.5 522.523 101.5 522.411 101.5C522.298 101.5 522.185 101.5 522.072 101.5C521.96 101.5 521.847 101.5 521.735 101.5C521.622 101.5 521.51 101.5 521.397 101.5C521.285 101.5 521.173 101.5 521.061 101.5C520.949 101.5 520.837 101.5 520.725 101.5C520.613 101.5 520.501 101.5 520.389 101.5C520.278 101.5 520.166 101.5 520.055 101.5C519.943 101.5 519.832 101.5 519.721 101.5C519.609 101.5 519.498 101.5 519.387 101.5C519.276 101.5 519.165 101.5 519.054 101.5C518.943 101.5 518.832 101.5 518.722 101.5C518.611 101.5 518.501 101.5 518.39 101.5C518.28 101.5 518.169 101.5 518.059 101.5C517.949 101.5 517.839 101.5 517.729 101.5C517.619 101.5 517.509 101.5 517.399 101.5C517.289 101.5 517.179 101.5 517.07 101.5C516.96 101.5 516.85 101.5 516.741 101.5C516.632 101.5 516.522 101.5 516.413 101.5C516.304 101.5 516.195 101.5 516.086 101.5C515.977 101.5 515.868 101.5 515.759 101.5C515.651 101.5 515.542 101.5 515.433 101.5C515.325 101.5 515.217 101.5 515.108 101.5C515 101.5 514.892 101.5 514.784 101.5C514.676 101.5 514.568 101.5 514.46 101.5C514.352 101.5 514.244 101.5 514.136 101.5C514.029 101.5 513.921 101.5 513.814 101.5C513.707 101.5 513.599 101.5 513.492 101.5C513.385 101.5 513.278 101.5 513.171 101.5C513.064 101.5 512.957 101.5 512.85 101.5C512.744 101.5 512.637 101.5 512.53 101.5C512.424 101.5 512.318 101.5 512.211 101.5C512.105 101.5 511.999 101.5 511.893 101.5C511.787 101.5 511.681 101.5 511.575 101.5C511.469 101.5 511.364 101.5 511.258 101.5C511.153 101.5 511.047 101.5 510.942 101.5C510.836 101.5 510.731 101.5 510.626 101.5C510.521 101.5 510.416 101.5 510.311 101.5C510.206 101.5 510.102 101.5 509.997 101.5C509.893 101.5 509.788 101.5 509.684 101.5C509.579 101.5 509.475 101.5 509.371 101.5C509.267 101.5 509.163 101.5 509.059 101.5C508.955 101.5 508.851 101.5 508.748 101.5C508.644 101.5 508.541 101.5 508.437 101.5C508.334 101.5 508.231 101.5 508.128 101.5C508.024 101.5 507.921 101.5 507.819 101.5C507.716 101.5 507.613 101.5 507.51 101.5C507.408 101.5 507.305 101.5 507.203 101.5C507.1 101.5 506.998 101.5 506.896 101.5C506.794 101.5 506.692 101.5 506.59 101.5C506.488 101.5 506.386 101.5 506.285 101.5C506.183 101.5 506.082 101.5 505.98 101.5C505.879 101.5 505.778 101.5 505.677 101.5C505.576 101.5 505.475 101.5 505.374 101.5C505.273 101.5 505.172 101.5 505.072 101.5C504.971 101.5 504.871 101.5 504.77 101.5C504.67 101.5 504.57 101.5 504.47 101.5C504.37 101.5 504.27 101.5 504.17 101.5C504.07 101.5 503.971 101.5 503.871 101.5C503.772 101.5 503.672 101.5 503.573 101.5C503.474 101.5 503.375 101.5 503.276 101.5C503.177 101.5 503.078 101.5 502.979 101.5C502.88 101.5 502.782 101.5 502.683 101.5C502.585 101.5 502.487 101.5 502.389 101.5C502.29 101.5 502.192 101.5 502.094 101.5C501.997 101.5 501.899 101.5 501.801 101.5C501.704 101.5 501.606 101.5 501.509 101.5C501.411 101.5 501.314 101.5 501.217 101.5C501.12 101.5 501.023 101.5 500.926 101.5C500.83 101.5 500.733 101.5 500.636 101.5C500.54 101.5 500.444 101.5 500.347 101.5C500.251 101.5 500.155 101.5 500.059 101.5C499.963 101.5 499.867 101.5 499.772 101.5C499.676 101.5 499.581 101.5 499.485 101.5C499.39 101.5 499.295 101.5 499.2 101.5C499.104 101.5 499.009 101.5 498.915 101.5C498.82 101.5 498.725 101.5 498.631 101.5C498.536 101.5 498.442 101.5 498.348 101.5C498.253 101.5 498.159 101.5 498.065 101.5C497.972 101.5 497.878 101.5 497.784 101.5C497.69 101.5 497.597 101.5 497.504 101.5C497.41 101.5 497.317 101.5 497.224 101.5C497.131 101.5 497.038 101.5 496.945 101.5C496.853 101.5 496.76 101.5 496.668 101.5C496.575 101.5 496.483 101.5 496.391 101.5C496.299 101.5 496.207 101.5 496.115 101.5C496.023 101.5 495.931 101.5 495.84 101.5C495.748 101.5 495.657 101.5 495.565 101.5C495.474 101.5 495.383 101.5 495.292 101.5C495.201 101.5 495.11 101.5 495.02 101.5C494.929 101.5 494.839 101.5 494.748 101.5C494.658 101.5 494.568 101.5 494.478 101.5C494.388 101.5 494.298 101.5 494.208 101.5C494.119 101.5 494.029 101.5 493.94 101.5C493.85 101.5 493.761 101.5 493.672 101.5C493.583 101.5 493.494 101.5 493.405 101.5C493.316 101.5 493.228 101.5 493.139 101.5C493.051 101.5 492.962 101.5 492.874 101.5C492.786 101.5 492.698 101.5 492.61 101.5C492.523 101.5 492.435 101.5 492.347 101.5C492.26 101.5 492.172 101.5 492.085 101.5C491.998 101.5 491.911 101.5 491.824 101.5C491.737 101.5 491.651 101.5 491.564 101.5C491.478 101.5 491.391 101.5 491.305 101.5C491.219 101.5 491.133 101.5 491.047 101.5C490.961 101.5 490.875 101.5 490.79 101.5C490.704 101.5 490.619 101.5 490.533 101.5C490.448 101.5 490.363 101.5 490.278 101.5C490.193 101.5 490.108 101.5 490.024 101.5C489.939 101.5 489.855 101.5 489.77 101.5C489.686 101.5 489.602 101.5 489.518 101.5C489.434 101.5 489.35 101.5 489.267 101.5C489.183 101.5 489.1 101.5 489.017 101.5C488.933 101.5 488.85 101.5 488.767 101.5C488.684 101.5 488.602 101.5 488.519 101.5C488.436 101.5 488.354 101.5 488.272 101.5C488.19 101.5 488.107 101.5 488.026 101.5C487.944 101.5 487.862 101.5 487.78 101.5C487.699 101.5 487.617 101.5 487.536 101.5C487.455 101.5 487.374 101.5 487.293 101.5C487.212 101.5 487.131 101.5 487.051 101.5C486.97 101.5 486.89 101.5 486.81 101.5C486.73 101.5 486.65 101.5 486.57 101.5C486.49 101.5 486.41 101.5 486.331 101.5C486.251 101.5 486.172 101.5 486.093 101.5C486.014 101.5 485.935 101.5 485.856 101.5C485.777 101.5 485.698 101.5 485.62 101.5C485.541 101.5 485.463 101.5 485.385 101.5C485.307 101.5 485.229 101.5 485.151 101.5C485.074 101.5 484.996 101.5 484.919 101.5C484.841 101.5 484.764 101.5 484.687 101.5C484.61 101.5 484.533 101.5 484.456 101.5C484.38 101.5 484.303 101.5 484.227 101.5C484.151 101.5 484.075 101.5 483.999 101.5C483.923 101.5 483.847 101.5 483.771 101.5C483.696 101.5 483.62 101.5 483.545 101.5C483.47 101.5 483.395 101.5 483.32 101.5C483.245 101.5 483.17 101.5 483.096 101.5C483.021 101.5 482.947 101.5 482.873 101.5C482.799 101.5 482.725 101.5 482.651 101.5C482.577 101.5 482.504 101.5 482.431 101.5C482.357 101.5 482.284 101.5 482.211 101.5C482.138 101.5 482.065 101.5 481.992 101.5C481.92 101.5 481.847 101.5 481.775 101.5C481.703 101.5 481.631 101.5 481.559 101.5C481.487 101.5 481.415 101.5 481.344 101.5C481.272 101.5 481.201 101.5 481.13 101.5C481.059 101.5 480.988 101.5 480.917 101.5C480.846 101.5 480.776 101.5 480.705 101.5C480.635 101.5 480.565 101.5 480.495 101.5C480.425 101.5 480.355 101.5 480.285 101.5C480.216 101.5 480.146 101.5 480.077 101.5C480.008 101.5 479.939 101.5 479.87 101.5C479.801 101.5 479.732 101.5 479.664 101.5C479.595 101.5 479.527 101.5 479.459 101.5C479.391 101.5 479.323 101.5 479.255 101.5C479.188 101.5 479.12 101.5 479.053 101.5C478.986 101.5 478.918 101.5 478.851 101.5C478.785 101.5 478.718 101.5 478.651 101.5C478.585 101.5 478.519 101.5 478.452 101.5C478.386 101.5 478.32 101.5 478.255 101.5C478.189 101.5 478.123 101.5 478.058 101.5C477.993 101.5 477.928 101.5 477.863 101.5C477.798 101.5 477.733 101.5 477.668 101.5C477.604 101.5 477.54 101.5 477.475 101.5C477.411 101.5 477.347 101.5 477.284 101.5C477.22 101.5 477.156 101.5 477.093 101.5C477.03 101.5 476.967 101.5 476.904 101.5C476.841 101.5 476.778 101.5 476.716 101.5C476.653 101.5 476.591 101.5 476.529 101.5C476.466 101.5 476.405 101.5 476.343 101.5C476.281 101.5 476.22 101.5 476.158 101.5C476.097 101.5 476.036 101.5 475.975 101.5C475.914 101.5 475.853 101.5 475.793 101.5C475.733 101.5 475.672 101.5 475.612 101.5C475.552 101.5 475.492 101.5 475.433 101.5C475.373 101.5 475.314 101.5 475.254 101.5C475.195 101.5 475.136 101.5 475.077 101.5C475.018 101.5 474.96 101.5 474.901 101.5C474.843 101.5 474.785 101.5 474.727 101.5C474.669 101.5 474.611 101.5 474.553 101.5C474.496 101.5 474.439 101.5 474.381 101.5C474.324 101.5 474.267 101.5 474.211 101.5C474.154 101.5 474.097 101.5 474.041 101.5C473.985 101.5 473.929 101.5 473.873 101.5C473.817 101.5 473.761 101.5 473.706 101.5C473.65 101.5 473.595 101.5 473.54 101.5C473.485 101.5 473.43 101.5 473.376 101.5C473.321 101.5 473.267 101.5 473.213 101.5C473.159 101.5 473.105 101.5 473.051 101.5C472.997 101.5 472.944 101.5 472.89 101.5C472.837 101.5 472.784 101.5 472.731 101.5C472.678 101.5 472.626 101.5 472.573 101.5C472.521 101.5 472.469 101.5 472.417 101.5C472.365 101.5 472.313 101.5 472.261 101.5C472.21 101.5 472.158 101.5 472.107 101.5C472.056 101.5 472.005 101.5 471.955 101.5C471.904 101.5 471.854 101.5 471.803 101.5C471.753 101.5 471.703 101.5 471.653 101.5C471.604 101.5 471.554 101.5 471.505 101.5C471.455 101.5 471.406 101.5 471.357 101.5C471.308 101.5 471.26 101.5 471.211 101.5C471.163 101.5 471.115 101.5 471.067 101.5C471.019 101.5 470.971 101.5 470.923 101.5C470.876 101.5 470.828 101.5 470.781 101.5C470.734 101.5 470.687 101.5 470.641 101.5C470.594 101.5 470.548 101.5 470.501 101.5C470.455 101.5 470.409 101.5 470.364 101.5C470.318 101.5 470.272 101.5 470.227 101.5C470.182 101.5 470.137 101.5 470.092 101.5C470.047 101.5 470.002 101.5 469.958 101.5C469.914 101.5 469.87 101.5 469.826 101.5C469.782 101.5 469.738 101.5 469.695 101.5C469.651 101.5 469.608 101.5 469.565 101.5C469.522 101.5 469.479 101.5 469.437 101.5C469.394 101.5 469.352 101.5 469.31 101.5C469.268 101.5 469.226 101.5 469.184 101.5C469.143 101.5 469.101 101.5 469.06 101.5C469.019 101.5 468.978 101.5 468.938 101.5C468.897 101.5 468.856 101.5 468.816 101.5C468.776 101.5 468.736 101.5 468.696 101.5C468.657 101.5 468.617 101.5 468.578 101.5V102.5C468.617 102.5 468.657 102.5 468.696 102.5C468.736 102.5 468.776 102.5 468.816 102.5C468.856 102.5 468.897 102.5 468.938 102.5C468.978 102.5 469.019 102.5 469.06 102.5C469.101 102.5 469.143 102.5 469.184 102.5C469.226 102.5 469.268 102.5 469.31 102.5C469.352 102.5 469.394 102.5 469.437 102.5C469.479 102.5 469.522 102.5 469.565 102.5C469.608 102.5 469.651 102.5 469.695 102.5C469.738 102.5 469.782 102.5 469.826 102.5C469.87 102.5 469.914 102.5 469.958 102.5C470.002 102.5 470.047 102.5 470.092 102.5C470.137 102.5 470.182 102.5 470.227 102.5C470.272 102.5 470.318 102.5 470.364 102.5C470.409 102.5 470.455 102.5 470.501 102.5C470.548 102.5 470.594 102.5 470.641 102.5C470.687 102.5 470.734 102.5 470.781 102.5C470.828 102.5 470.876 102.5 470.923 102.5C470.971 102.5 471.019 102.5 471.067 102.5C471.115 102.5 471.163 102.5 471.211 102.5C471.26 102.5 471.308 102.5 471.357 102.5C471.406 102.5 471.455 102.5 471.505 102.5C471.554 102.5 471.604 102.5 471.653 102.5C471.703 102.5 471.753 102.5 471.803 102.5C471.854 102.5 471.904 102.5 471.955 102.5C472.005 102.5 472.056 102.5 472.107 102.5C472.158 102.5 472.21 102.5 472.261 102.5C472.313 102.5 472.365 102.5 472.417 102.5C472.469 102.5 472.521 102.5 472.573 102.5C472.626 102.5 472.678 102.5 472.731 102.5C472.784 102.5 472.837 102.5 472.89 102.5C472.944 102.5 472.997 102.5 473.051 102.5C473.105 102.5 473.159 102.5 473.213 102.5C473.267 102.5 473.321 102.5 473.376 102.5C473.43 102.5 473.485 102.5 473.54 102.5C473.595 102.5 473.65 102.5 473.706 102.5C473.761 102.5 473.817 102.5 473.873 102.5C473.929 102.5 473.985 102.5 474.041 102.5C474.097 102.5 474.154 102.5 474.211 102.5C474.267 102.5 474.324 102.5 474.381 102.5C474.439 102.5 474.496 102.5 474.553 102.5C474.611 102.5 474.669 102.5 474.727 102.5C474.785 102.5 474.843 102.5 474.901 102.5C474.96 102.5 475.018 102.5 475.077 102.5C475.136 102.5 475.195 102.5 475.254 102.5C475.314 102.5 475.373 102.5 475.433 102.5C475.492 102.5 475.552 102.5 475.612 102.5C475.672 102.5 475.733 102.5 475.793 102.5C475.853 102.5 475.914 102.5 475.975 102.5C476.036 102.5 476.097 102.5 476.158 102.5C476.22 102.5 476.281 102.5 476.343 102.5C476.405 102.5 476.466 102.5 476.529 102.5C476.591 102.5 476.653 102.5 476.716 102.5C476.778 102.5 476.841 102.5 476.904 102.5C476.967 102.5 477.03 102.5 477.093 102.5C477.156 102.5 477.22 102.5 477.284 102.5C477.347 102.5 477.411 102.5 477.475 102.5C477.54 102.5 477.604 102.5 477.668 102.5C477.733 102.5 477.798 102.5 477.863 102.5C477.928 102.5 477.993 102.5 478.058 102.5C478.123 102.5 478.189 102.5 478.255 102.5C478.32 102.5 478.386 102.5 478.452 102.5C478.519 102.5 478.585 102.5 478.651 102.5C478.718 102.5 478.785 102.5 478.851 102.5C478.918 102.5 478.986 102.5 479.053 102.5C479.12 102.5 479.188 102.5 479.255 102.5C479.323 102.5 479.391 102.5 479.459 102.5C479.527 102.5 479.595 102.5 479.664 102.5C479.732 102.5 479.801 102.5 479.87 102.5C479.939 102.5 480.008 102.5 480.077 102.5C480.146 102.5 480.216 102.5 480.285 102.5C480.355 102.5 480.425 102.5 480.495 102.5C480.565 102.5 480.635 102.5 480.705 102.5C480.776 102.5 480.846 102.5 480.917 102.5C480.988 102.5 481.059 102.5 481.13 102.5C481.201 102.5 481.272 102.5 481.344 102.5C481.415 102.5 481.487 102.5 481.559 102.5C481.631 102.5 481.703 102.5 481.775 102.5C481.847 102.5 481.92 102.5 481.992 102.5C482.065 102.5 482.138 102.5 482.211 102.5C482.284 102.5 482.357 102.5 482.431 102.5C482.504 102.5 482.577 102.5 482.651 102.5C482.725 102.5 482.799 102.5 482.873 102.5C482.947 102.5 483.021 102.5 483.096 102.5C483.17 102.5 483.245 102.5 483.32 102.5C483.395 102.5 483.47 102.5 483.545 102.5C483.62 102.5 483.696 102.5 483.771 102.5C483.847 102.5 483.923 102.5 483.999 102.5C484.075 102.5 484.151 102.5 484.227 102.5C484.303 102.5 484.38 102.5 484.456 102.5C484.533 102.5 484.61 102.5 484.687 102.5C484.764 102.5 484.841 102.5 484.919 102.5C484.996 102.5 485.074 102.5 485.151 102.5C485.229 102.5 485.307 102.5 485.385 102.5C485.463 102.5 485.541 102.5 485.62 102.5C485.698 102.5 485.777 102.5 485.856 102.5C485.935 102.5 486.014 102.5 486.093 102.5C486.172 102.5 486.251 102.5 486.331 102.5C486.41 102.5 486.49 102.5 486.57 102.5C486.65 102.5 486.73 102.5 486.81 102.5C486.89 102.5 486.97 102.5 487.051 102.5C487.131 102.5 487.212 102.5 487.293 102.5C487.374 102.5 487.455 102.5 487.536 102.5C487.617 102.5 487.699 102.5 487.78 102.5C487.862 102.5 487.944 102.5 488.026 102.5C488.107 102.5 488.19 102.5 488.272 102.5C488.354 102.5 488.436 102.5 488.519 102.5C488.602 102.5 488.684 102.5 488.767 102.5C488.85 102.5 488.933 102.5 489.017 102.5C489.1 102.5 489.183 102.5 489.267 102.5C489.35 102.5 489.434 102.5 489.518 102.5C489.602 102.5 489.686 102.5 489.77 102.5C489.855 102.5 489.939 102.5 490.024 102.5C490.108 102.5 490.193 102.5 490.278 102.5C490.363 102.5 490.448 102.5 490.533 102.5C490.619 102.5 490.704 102.5 490.79 102.5C490.875 102.5 490.961 102.5 491.047 102.5C491.133 102.5 491.219 102.5 491.305 102.5C491.391 102.5 491.478 102.5 491.564 102.5C491.651 102.5 491.737 102.5 491.824 102.5C491.911 102.5 491.998 102.5 492.085 102.5C492.172 102.5 492.26 102.5 492.347 102.5C492.435 102.5 492.523 102.5 492.61 102.5C492.698 102.5 492.786 102.5 492.874 102.5C492.962 102.5 493.051 102.5 493.139 102.5C493.228 102.5 493.316 102.5 493.405 102.5C493.494 102.5 493.583 102.5 493.672 102.5C493.761 102.5 493.85 102.5 493.94 102.5C494.029 102.5 494.119 102.5 494.208 102.5C494.298 102.5 494.388 102.5 494.478 102.5C494.568 102.5 494.658 102.5 494.748 102.5C494.839 102.5 494.929 102.5 495.02 102.5C495.11 102.5 495.201 102.5 495.292 102.5C495.383 102.5 495.474 102.5 495.565 102.5C495.657 102.5 495.748 102.5 495.84 102.5C495.931 102.5 496.023 102.5 496.115 102.5C496.207 102.5 496.299 102.5 496.391 102.5C496.483 102.5 496.575 102.5 496.668 102.5C496.76 102.5 496.853 102.5 496.945 102.5C497.038 102.5 497.131 102.5 497.224 102.5C497.317 102.5 497.41 102.5 497.504 102.5C497.597 102.5 497.69 102.5 497.784 102.5C497.878 102.5 497.972 102.5 498.065 102.5C498.159 102.5 498.253 102.5 498.348 102.5C498.442 102.5 498.536 102.5 498.631 102.5C498.725 102.5 498.82 102.5 498.915 102.5C499.009 102.5 499.104 102.5 499.2 102.5C499.295 102.5 499.39 102.5 499.485 102.5C499.581 102.5 499.676 102.5 499.772 102.5C499.867 102.5 499.963 102.5 500.059 102.5C500.155 102.5 500.251 102.5 500.347 102.5C500.444 102.5 500.54 102.5 500.636 102.5C500.733 102.5 500.83 102.5 500.926 102.5C501.023 102.5 501.12 102.5 501.217 102.5C501.314 102.5 501.411 102.5 501.509 102.5C501.606 102.5 501.704 102.5 501.801 102.5C501.899 102.5 501.997 102.5 502.094 102.5C502.192 102.5 502.29 102.5 502.389 102.5C502.487 102.5 502.585 102.5 502.683 102.5C502.782 102.5 502.88 102.5 502.979 102.5C503.078 102.5 503.177 102.5 503.276 102.5C503.375 102.5 503.474 102.5 503.573 102.5C503.672 102.5 503.772 102.5 503.871 102.5C503.971 102.5 504.07 102.5 504.17 102.5C504.27 102.5 504.37 102.5 504.47 102.5C504.57 102.5 504.67 102.5 504.77 102.5C504.871 102.5 504.971 102.5 505.072 102.5C505.172 102.5 505.273 102.5 505.374 102.5C505.475 102.5 505.576 102.5 505.677 102.5C505.778 102.5 505.879 102.5 505.98 102.5C506.082 102.5 506.183 102.5 506.285 102.5C506.386 102.5 506.488 102.5 506.59 102.5C506.692 102.5 506.794 102.5 506.896 102.5C506.998 102.5 507.1 102.5 507.203 102.5C507.305 102.5 507.408 102.5 507.51 102.5C507.613 102.5 507.716 102.5 507.819 102.5C507.921 102.5 508.024 102.5 508.128 102.5C508.231 102.5 508.334 102.5 508.437 102.5C508.541 102.5 508.644 102.5 508.748 102.5C508.851 102.5 508.955 102.5 509.059 102.5C509.163 102.5 509.267 102.5 509.371 102.5C509.475 102.5 509.579 102.5 509.684 102.5C509.788 102.5 509.893 102.5 509.997 102.5C510.102 102.5 510.206 102.5 510.311 102.5C510.416 102.5 510.521 102.5 510.626 102.5C510.731 102.5 510.836 102.5 510.942 102.5C511.047 102.5 511.153 102.5 511.258 102.5C511.364 102.5 511.469 102.5 511.575 102.5C511.681 102.5 511.787 102.5 511.893 102.5C511.999 102.5 512.105 102.5 512.211 102.5C512.318 102.5 512.424 102.5 512.53 102.5C512.637 102.5 512.744 102.5 512.85 102.5C512.957 102.5 513.064 102.5 513.171 102.5C513.278 102.5 513.385 102.5 513.492 102.5C513.599 102.5 513.707 102.5 513.814 102.5C513.921 102.5 514.029 102.5 514.136 102.5C514.244 102.5 514.352 102.5 514.46 102.5C514.568 102.5 514.676 102.5 514.784 102.5C514.892 102.5 515 102.5 515.108 102.5C515.217 102.5 515.325 102.5 515.433 102.5C515.542 102.5 515.651 102.5 515.759 102.5C515.868 102.5 515.977 102.5 516.086 102.5C516.195 102.5 516.304 102.5 516.413 102.5C516.522 102.5 516.632 102.5 516.741 102.5C516.85 102.5 516.96 102.5 517.07 102.5C517.179 102.5 517.289 102.5 517.399 102.5C517.509 102.5 517.619 102.5 517.729 102.5C517.839 102.5 517.949 102.5 518.059 102.5C518.169 102.5 518.28 102.5 518.39 102.5C518.501 102.5 518.611 102.5 518.722 102.5C518.832 102.5 518.943 102.5 519.054 102.5C519.165 102.5 519.276 102.5 519.387 102.5C519.498 102.5 519.609 102.5 519.721 102.5C519.832 102.5 519.943 102.5 520.055 102.5C520.166 102.5 520.278 102.5 520.389 102.5C520.501 102.5 520.613 102.5 520.725 102.5C520.837 102.5 520.949 102.5 521.061 102.5C521.173 102.5 521.285 102.5 521.397 102.5C521.51 102.5 521.622 102.5 521.735 102.5C521.847 102.5 521.96 102.5 522.072 102.5C522.185 102.5 522.298 102.5 522.411 102.5C522.523 102.5 522.636 102.5 522.75 102.5C522.863 102.5 522.976 102.5 523.089 102.5C523.202 102.5 523.316 102.5 523.429 102.5C523.543 102.5 523.656 102.5 523.77 102.5C523.883 102.5 523.997 102.5 524.111 102.5C524.225 102.5 524.339 102.5 524.453 102.5C524.567 102.5 524.681 102.5 524.795 102.5C524.909 102.5 525.024 102.5 525.138 102.5C525.252 102.5 525.367 102.5 525.481 102.5C525.596 102.5 525.711 102.5 525.825 102.5C525.94 102.5 526.055 102.5 526.17 102.5C526.285 102.5 526.4 102.5 526.515 102.5C526.63 102.5 526.745 102.5 526.86 102.5C526.976 102.5 527.091 102.5 527.207 102.5C527.322 102.5 527.438 102.5 527.553 102.5C527.669 102.5 527.785 102.5 527.9 102.5C528.016 102.5 528.132 102.5 528.248 102.5C528.364 102.5 528.48 102.5 528.596 102.5C528.713 102.5 528.829 102.5 528.945 102.5C529.061 102.5 529.178 102.5 529.294 102.5C529.411 102.5 529.527 102.5 529.644 102.5C529.761 102.5 529.878 102.5 529.994 102.5C530.111 102.5 530.228 102.5 530.345 102.5C530.462 102.5 530.579 102.5 530.696 102.5C530.813 102.5 530.931 102.5 531.048 102.5C531.165 102.5 531.283 102.5 531.4 102.5C531.518 102.5 531.635 102.5 531.753 102.5C531.871 102.5 531.988 102.5 532.106 102.5C532.224 102.5 532.342 102.5 532.46 102.5C532.578 102.5 532.696 102.5 532.814 102.5C532.932 102.5 533.05 102.5 533.169 102.5C533.287 102.5 533.405 102.5 533.524 102.5C533.642 102.5 533.761 102.5 533.879 102.5C533.998 102.5 534.116 102.5 534.235 102.5C534.354 102.5 534.473 102.5 534.592 102.5C534.71 102.5 534.829 102.5 534.948 102.5C535.067 102.5 535.187 102.5 535.306 102.5C535.425 102.5 535.544 102.5 535.664 102.5C535.783 102.5 535.902 102.5 536.022 102.5C536.141 102.5 536.261 102.5 536.38 102.5C536.5 102.5 536.62 102.5 536.739 102.5C536.859 102.5 536.979 102.5 537.099 102.5C537.219 102.5 537.339 102.5 537.459 102.5C537.579 102.5 537.699 102.5 537.819 102.5C537.939 102.5 538.06 102.5 538.18 102.5C538.3 102.5 538.421 102.5 538.541 102.5C538.662 102.5 538.782 102.5 538.903 102.5C539.023 102.5 539.144 102.5 539.265 102.5C539.385 102.5 539.506 102.5 539.627 102.5C539.748 102.5 539.869 102.5 539.99 102.5C540.111 102.5 540.232 102.5 540.353 102.5C540.474 102.5 540.595 102.5 540.716 102.5C540.838 102.5 540.959 102.5 541.08 102.5C541.202 102.5 541.323 102.5 541.445 102.5C541.566 102.5 541.688 102.5 541.809 102.5C541.931 102.5 542.053 102.5 542.174 102.5C542.296 102.5 542.418 102.5 542.54 102.5C542.662 102.5 542.784 102.5 542.906 102.5C543.028 102.5 543.15 102.5 543.272 102.5C543.394 102.5 543.516 102.5 543.638 102.5C543.761 102.5 543.883 102.5 544.005 102.5C544.128 102.5 544.25 102.5 544.372 102.5C544.495 102.5 544.617 102.5 544.74 102.5C544.863 102.5 544.985 102.5 545.108 102.5C545.231 102.5 545.353 102.5 545.476 102.5C545.599 102.5 545.722 102.5 545.845 102.5C545.968 102.5 546.091 102.5 546.214 102.5C546.337 102.5 546.46 102.5 546.583 102.5C546.706 102.5 546.829 102.5 546.952 102.5C547.076 102.5 547.199 102.5 547.322 102.5C547.446 102.5 547.569 102.5 547.693 102.5C547.816 102.5 547.939 102.5 548.063 102.5C548.187 102.5 548.31 102.5 548.434 102.5C548.558 102.5 548.681 102.5 548.805 102.5C548.929 102.5 549.053 102.5 549.176 102.5C549.3 102.5 549.424 102.5 549.548 102.5C549.672 102.5 549.796 102.5 549.92 102.5C550.044 102.5 550.168 102.5 550.293 102.5C550.417 102.5 550.541 102.5 550.665 102.5C550.789 102.5 550.914 102.5 551.038 102.5C551.162 102.5 551.287 102.5 551.411 102.5C551.536 102.5 551.66 102.5 551.785 102.5C551.909 102.5 552.034 102.5 552.158 102.5C552.283 102.5 552.408 102.5 552.532 102.5C552.657 102.5 552.782 102.5 552.907 102.5C553.031 102.5 553.156 102.5 553.281 102.5C553.406 102.5 553.531 102.5 553.656 102.5C553.781 102.5 553.906 102.5 554.031 102.5C554.156 102.5 554.281 102.5 554.406 102.5C554.531 102.5 554.656 102.5 554.782 102.5C554.907 102.5 555.032 102.5 555.157 102.5C555.283 102.5 555.408 102.5 555.533 102.5C555.659 102.5 555.784 102.5 555.909 102.5C556.035 102.5 556.16 102.5 556.286 102.5C556.411 102.5 556.537 102.5 556.663 102.5C556.788 102.5 556.914 102.5 557.039 102.5C557.165 102.5 557.291 102.5 557.417 102.5C557.542 102.5 557.668 102.5 557.794 102.5C557.92 102.5 558.045 102.5 558.171 102.5C558.297 102.5 558.423 102.5 558.549 102.5C558.675 102.5 558.801 102.5 558.927 102.5C559.053 102.5 559.179 102.5 559.305 102.5C559.431 102.5 559.557 102.5 559.684 102.5C559.81 102.5 559.936 102.5 560.062 102.5C560.188 102.5 560.314 102.5 560.441 102.5C560.567 102.5 560.693 102.5 560.82 102.5C560.946 102.5 561.072 102.5 561.199 102.5C561.325 102.5 561.452 102.5 561.578 102.5C561.704 102.5 561.831 102.5 561.957 102.5C562.084 102.5 562.21 102.5 562.337 102.5C562.464 102.5 562.59 102.5 562.717 102.5C562.843 102.5 562.97 102.5 563.097 102.5C563.223 102.5 563.35 102.5 563.477 102.5C563.603 102.5 563.73 102.5 563.857 102.5C563.984 102.5 564.111 102.5 564.237 102.5C564.364 102.5 564.491 102.5 564.618 102.5C564.745 102.5 564.872 102.5 564.999 102.5C565.125 102.5 565.252 102.5 565.379 102.5C565.506 102.5 565.633 102.5 565.76 102.5C565.887 102.5 566.014 102.5 566.141 102.5C566.268 102.5 566.396 102.5 566.523 102.5C566.65 102.5 566.777 102.5 566.904 102.5C567.031 102.5 567.158 102.5 567.285 102.5C567.413 102.5 567.54 102.5 567.667 102.5C567.794 102.5 567.921 102.5 568.049 102.5C568.176 102.5 568.303 102.5 568.43 102.5C568.558 102.5 568.685 102.5 568.812 102.5C568.94 102.5 569.067 102.5 569.194 102.5C569.322 102.5 569.449 102.5 569.576 102.5C569.704 102.5 569.831 102.5 569.959 102.5C570.086 102.5 570.213 102.5 570.341 102.5C570.468 102.5 570.596 102.5 570.723 102.5C570.851 102.5 570.978 102.5 571.106 102.5C571.233 102.5 571.361 102.5 571.488 102.5C571.616 102.5 571.743 102.5 571.871 102.5C571.998 102.5 572.126 102.5 572.253 102.5C572.381 102.5 572.508 102.5 572.636 102.5C572.764 102.5 572.891 102.5 573.019 102.5C573.146 102.5 573.274 102.5 573.402 102.5C573.529 102.5 573.657 102.5 573.785 102.5C573.912 102.5 574.04 102.5 574.168 102.5C574.295 102.5 574.423 102.5 574.551 102.5C574.678 102.5 574.806 102.5 574.934 102.5C575.061 102.5 575.189 102.5 575.317 102.5C575.444 102.5 575.572 102.5 575.7 102.5C575.827 102.5 575.955 102.5 576.083 102.5C576.211 102.5 576.338 102.5 576.466 102.5C576.594 102.5 576.722 102.5 576.849 102.5C576.977 102.5 577.105 102.5 577.233 102.5C577.36 102.5 577.488 102.5 577.616 102.5C577.744 102.5 577.871 102.5 577.999 102.5C578.127 102.5 578.255 102.5 578.382 102.5C578.51 102.5 578.638 102.5 578.766 102.5C578.893 102.5 579.021 102.5 579.149 102.5C579.277 102.5 579.404 102.5 579.532 102.5C579.66 102.5 579.788 102.5 579.915 102.5C580.043 102.5 580.171 102.5 580.299 102.5C580.426 102.5 580.554 102.5 580.682 102.5C580.81 102.5 580.937 102.5 581.065 102.5C581.193 102.5 581.321 102.5 581.448 102.5C581.576 102.5 581.704 102.5 581.832 102.5C581.959 102.5 582.087 102.5 582.215 102.5C582.342 102.5 582.47 102.5 582.598 102.5C582.726 102.5 582.853 102.5 582.981 102.5C583.109 102.5 583.236 102.5 583.364 102.5C583.492 102.5 583.619 102.5 583.747 102.5C583.875 102.5 584.002 102.5 584.13 102.5C584.258 102.5 584.385 102.5 584.513 102.5C584.64 102.5 584.768 102.5 584.896 102.5C585.023 102.5 585.151 102.5 585.279 102.5C585.406 102.5 585.534 102.5 585.661 102.5C585.789 102.5 585.916 102.5 586.044 102.5C586.171 102.5 586.299 102.5 586.427 102.5C586.554 102.5 586.682 102.5 586.809 102.5C586.937 102.5 587.064 102.5 587.191 102.5C587.319 102.5 587.446 102.5 587.574 102.5C587.701 102.5 587.829 102.5 587.956 102.5C588.084 102.5 588.211 102.5 588.338 102.5C588.466 102.5 588.593 102.5 588.72 102.5C588.848 102.5 588.975 102.5 589.102 102.5C589.23 102.5 589.357 102.5 589.484 102.5C589.612 102.5 589.739 102.5 589.866 102.5C589.993 102.5 590.121 102.5 590.248 102.5C590.375 102.5 590.502 102.5 590.629 102.5C590.757 102.5 590.884 102.5 591.011 102.5C591.138 102.5 591.265 102.5 591.392 102.5C591.519 102.5 591.646 102.5 591.774 102.5C591.901 102.5 592.028 102.5 592.155 102.5C592.282 102.5 592.409 102.5 592.536 102.5C592.663 102.5 592.79 102.5 592.916 102.5C593.043 102.5 593.17 102.5 593.297 102.5C593.424 102.5 593.551 102.5 593.678 102.5C593.805 102.5 593.931 102.5 594.058 102.5C594.185 102.5 594.312 102.5 594.438 102.5C594.565 102.5 594.692 102.5 594.819 102.5C594.945 102.5 595.072 102.5 595.198 102.5C595.325 102.5 595.452 102.5 595.578 102.5C595.705 102.5 595.831 102.5 595.958 102.5C596.084 102.5 596.211 102.5 596.337 102.5C596.464 102.5 596.59 102.5 596.717 102.5C596.843 102.5 596.969 102.5 597.096 102.5C597.222 102.5 597.348 102.5 597.475 102.5C597.601 102.5 597.727 102.5 597.853 102.5C597.98 102.5 598.106 102.5 598.232 102.5C598.358 102.5 598.484 102.5 598.61 102.5C598.737 102.5 598.863 102.5 598.989 102.5C599.115 102.5 599.241 102.5 599.367 102.5C599.493 102.5 599.618 102.5 599.744 102.5C599.87 102.5 599.996 102.5 600.122 102.5C600.248 102.5 600.374 102.5 600.499 102.5C600.625 102.5 600.751 102.5 600.876 102.5C601.002 102.5 601.128 102.5 601.253 102.5C601.379 102.5 601.505 102.5 601.63 102.5C601.756 102.5 601.881 102.5 602.007 102.5C602.132 102.5 602.258 102.5 602.383 102.5C602.508 102.5 602.634 102.5 602.759 102.5C602.884 102.5 603.01 102.5 603.135 102.5C603.26 102.5 603.385 102.5 603.51 102.5C603.635 102.5 603.761 102.5 603.886 102.5C604.011 102.5 604.136 102.5 604.261 102.5C604.386 102.5 604.511 102.5 604.635 102.5C604.76 102.5 604.885 102.5 605.01 102.5C605.135 102.5 605.26 102.5 605.384 102.5C605.509 102.5 605.634 102.5 605.758 102.5C605.883 102.5 606.008 102.5 606.132 102.5C606.257 102.5 606.381 102.5 606.506 102.5C606.63 102.5 606.755 102.5 606.879 102.5C607.003 102.5 607.128 102.5 607.252 102.5C607.376 102.5 607.5 102.5 607.625 102.5C607.749 102.5 607.873 102.5 607.997 102.5C608.121 102.5 608.245 102.5 608.369 102.5C608.493 102.5 608.617 102.5 608.741 102.5C608.865 102.5 608.989 102.5 609.112 102.5C609.236 102.5 609.36 102.5 609.483 102.5C609.607 102.5 609.731 102.5 609.854 102.5C609.978 102.5 610.102 102.5 610.225 102.5C610.348 102.5 610.472 102.5 610.595 102.5C610.719 102.5 610.842 102.5 610.965 102.5C611.089 102.5 611.212 102.5 611.335 102.5C611.458 102.5 611.581 102.5 611.704 102.5C611.827 102.5 611.95 102.5 612.073 102.5C612.196 102.5 612.319 102.5 612.442 102.5C612.565 102.5 612.687 102.5 612.81 102.5C612.933 102.5 613.056 102.5 613.178 102.5C613.301 102.5 613.423 102.5 613.546 102.5C613.668 102.5 613.791 102.5 613.913 102.5C614.036 102.5 614.158 102.5 614.28 102.5C614.402 102.5 614.525 102.5 614.647 102.5C614.769 102.5 614.891 102.5 615.013 102.5C615.135 102.5 615.257 102.5 615.379 102.5C615.501 102.5 615.623 102.5 615.744 102.5C615.866 102.5 615.988 102.5 616.109 102.5C616.231 102.5 616.353 102.5 616.474 102.5C616.596 102.5 616.717 102.5 616.839 102.5C616.96 102.5 617.081 102.5 617.203 102.5C617.324 102.5 617.445 102.5 617.566 102.5C617.687 102.5 617.809 102.5 617.93 102.5C618.051 102.5 618.172 102.5 618.292 102.5C618.413 102.5 618.534 102.5 618.655 102.5C618.776 102.5 618.896 102.5 619.017 102.5C619.138 102.5 619.258 102.5 619.379 102.5C619.499 102.5 619.62 102.5 619.74 102.5C619.86 102.5 619.981 102.5 620.101 102.5C620.221 102.5 620.341 102.5 620.461 102.5C620.581 102.5 620.701 102.5 620.821 102.5C620.941 102.5 621.061 102.5 621.181 102.5C621.301 102.5 621.42 102.5 621.54 102.5C621.66 102.5 621.779 102.5 621.899 102.5C622.018 102.5 622.138 102.5 622.257 102.5C622.376 102.5 622.496 102.5 622.615 102.5C622.734 102.5 622.853 102.5 622.972 102.5C623.091 102.5 623.21 102.5 623.329 102.5C623.448 102.5 623.567 102.5 623.686 102.5C623.805 102.5 623.923 102.5 624.042 102.5C624.161 102.5 624.279 102.5 624.398 102.5C624.516 102.5 624.634 102.5 624.753 102.5C624.871 102.5 624.989 102.5 625.107 102.5C625.226 102.5 625.344 102.5 625.462 102.5C625.58 102.5 625.698 102.5 625.815 102.5C625.933 102.5 626.051 102.5 626.169 102.5C626.286 102.5 626.404 102.5 626.522 102.5C626.639 102.5 626.757 102.5 626.874 102.5C626.991 102.5 627.109 102.5 627.226 102.5C627.343 102.5 627.46 102.5 627.577 102.5C627.694 102.5 627.811 102.5 627.928 102.5C628.045 102.5 628.162 102.5 628.278 102.5C628.395 102.5 628.512 102.5 628.628 102.5C628.745 102.5 628.861 102.5 628.978 102.5C629.094 102.5 629.21 102.5 629.326 102.5C629.443 102.5 629.559 102.5 629.675 102.5C629.791 102.5 629.907 102.5 630.023 102.5V101.5ZM640.698 152C642.96 152 644.628 149.886 644.102 147.686L643.129 147.919C643.505 149.49 642.314 151 640.698 151V152ZM634 105.5C634 103.308 632.223 101.5 630.023 101.5V102.5C631.663 102.5 633 103.851 633 105.5H634ZM630.5 160.5C632.433 160.5 634 158.933 634 157H633C633 158.381 631.881 159.5 630.5 159.5V160.5ZM462.27 159.5C460.804 159.5 459.653 158.245 459.779 156.785L458.783 156.699C458.606 158.743 460.218 160.5 462.27 160.5V159.5ZM468.578 101.5C465.728 101.5 463.352 103.69 463.108 106.528L464.104 106.614C464.304 104.291 466.249 102.5 468.578 102.5V101.5Z" fill="black" fill-opacity="0.4"/>
</g>
<defs>
<filter id="filter0_d_124_531" x="454.77" y="101.5" width="193.43" height="67" filterUnits="userSpaceOnUse" color-interpolation-filters="sRGB">
<feFlood flood-opacity="0" result="BackgroundImageFix"/>
<feColorMatrix in="SourceAlpha" type="matrix" values="0 0 0 0 0 0 0 0 0 0 0 0 0 0 0 0 0 0 127 0" result="hardAlpha"/>
<feOffset dy="4"/>
<feGaussianBlur stdDeviation="2"/>
<feComposite in2="hardAlpha" operator="out"/>
<feColorMatrix type="matrix" values="0 0 0 0 0 0 0 0 0 0 0 0 0 0 0 0 0 0 0.25 0"/>
<feBlend mode="normal" in2="BackgroundImageFix" result="effect1_dropShadow_124_531"/>
<feBlend mode="normal" in="SourceGraphic" in2="effect1_dropShadow_124_531" result="shape"/>
</filter>
<linearGradient id="paint0_linear_124_531" x1="370.5" y1="59.5" x2="738.5" y2="229" gradientUnits="userSpaceOnUse">
<stop stop-color="#BC7B48"/>
<stop offset="1" stop-color="#BC7B48" stop-opacity="0"/>
</linearGradient>
</defs>
</svg>
